<svg width="170" height="40" fill="none" xmlns="http://www.w3.org/2000/svg"><g clip-path="url(#clip0_436_82)" fill="#fff"><path d="M14.109.127H.248v20.84h13.86c.694 0 1.387-.076 2.006-.203a10.844 10.844 0 002.005-.637c3.712-1.656 6.113-5.427 6.113-9.58 0-5.732-4.53-10.42-10.123-10.42zm0 12.892H8.02V8.1h6.089c1.312 0 2.376 1.096 2.376 2.446s-1.064 2.472-2.376 2.472zm103.56-.051h-4.208v8h8.613l-4.405-8zm9.059 0h-4.654v8h4.654v-8zm-4.183 18.191h4.183v-6.956h-8.614l4.431 6.956zm-4.431-6.956h-4.653v6.956h4.653v-6.956zm-41.359-3.847c-.965-.586-2.153-1.146-3.589-1.656-1.41-.535-2.4-.968-3.02-1.35-.618-.382-.94-.84-.94-1.427 0-.535.173-.943.52-1.274.346-.305.817-.484 1.41-.484.669 0 1.411.179 2.203.51.793.331 1.56.942 2.278 1.834l4.48-4.662c-1.04-1.427-2.278-2.446-3.763-3.083-1.46-.637-3.242-.943-5.297-.943-1.287 0-2.475.204-3.564.637-1.064.433-2.005 1.02-2.772 1.758a8.456 8.456 0 00-1.831 2.7c-.446 1.045-.669 2.166-.669 3.39 0 1.07.149 2.038.47 2.827a6.35 6.35 0 001.139 1.886h13.86a5.036 5.036 0 00-.915-.663zm-7.4 3.974c.718.23 1.337.459 1.856.663.495.204.916.408 1.238.637.322.23.57.458.693.739.148.28.223.586.223.968 0 .535-.198.968-.594 1.35-.396.357-1.04.535-1.98.535-.842 0-1.634-.23-2.426-.662-.792-.433-1.56-1.121-2.302-2.064l-4.9 3.796a11.566 11.566 0 003.935 3.414c1.534.79 3.465 1.198 5.767 1.198 3.02 0 5.396-.688 7.128-2.064 1.733-1.376 2.624-3.312 2.624-5.784 0-.942-.124-1.783-.347-2.522-.024-.102-.074-.178-.123-.305H68.934c.149.025.272.05.42.101zm80.12-9.35h-4.406l-1.832 5.988-1.806-5.988H137l2.698 5.988h7.079l2.698-5.988zm-4.256 9.223h-3.936v5.452h3.936v-5.452zm21.286 4.28h2.946l-1.931-4.28h-2.97l1.955 4.28z"/><path d="M162.619 28.483h-2.945l1.906-4.28h2.97l-1.931 4.28zm0-11.795h-2.945l1.906 4.28h2.97l-1.931-4.28z"/><path d="M166.505 16.688h2.946l-1.931 4.28h-2.97l1.955-4.28zm-72.573 1.604c0-1.325 1.04-2.395 2.327-2.395s2.326 1.07 2.326 2.395v2.675h5.198v-2.675c0-4.255-3.366-7.745-7.524-7.745-4.158 0-7.525 3.465-7.525 7.745v2.675h5.174v-2.675h.024zm4.678 6.803c0 1.325-1.039 2.395-2.326 2.395-1.287 0-2.327-1.07-2.327-2.395v-.866h-5.173v.866c0 4.255 3.366 7.745 7.525 7.745 4.133 0 7.524-3.465 7.524-7.745v-.866h-5.198v.866h-.024zm-52.596.382c0 1.758-1.387 3.21-3.12 3.21-1.707 0-3.118-1.427-3.118-3.21v-1.274h-8.292v1.248c0 6.472 5.124 11.746 11.41 11.746 6.288 0 11.411-5.274 11.411-11.746v-1.248h-8.291v1.274zm8.292-20.891h-8.292v16.382h8.291V4.586zm-14.53 0h-8.292v16.382h8.292V4.586zM19.158 24.203H.248v15.669h9.257V24.203l8.218 15.669h10.296l-8.86-15.669z"/></g><defs><clipPath id="clip0_436_82"><path fill="#fff" d="M0 0h169.697v40H0z"/></clipPath></defs></svg>