<svg width="570" height="570" fill="none" xmlns="http://www.w3.org/2000/svg"><path opacity=".05" d="M419.469 473.989l-161.69 93.328c-6.883 3.967-18.899 3.5-26.832-1.166l-157.84-91.112c-7.934-4.549-8.867-11.549-1.984-15.515l161.691-93.328c6.882-3.967 18.898-3.5 26.831 1.166l157.958 91.112c7.933 4.549 8.866 11.549 1.866 15.515z" fill="#1A1A1A"/><path d="M419.469 365.961l-161.69 93.328c-6.883 3.966-18.899 3.5-26.832-1.167l-157.84-91.111c-7.934-4.55-8.867-11.549-1.984-15.516l161.691-93.328c6.882-3.966 18.898-3.499 26.831 1.167l157.841 91.111c8.05 4.55 8.983 11.55 1.983 15.516z" fill="#AFD3CF"/><path d="M424.135 359.662v35.698c-.233 2.333-1.75 4.549-4.666 6.299l-161.691 93.328c-6.883 3.967-18.899 3.5-26.831-1.166L73.106 402.709c-4.317-2.566-6.65-5.716-6.65-8.749v-35.231c.233 2.916 2.45 5.949 6.533 8.282l86.678 50.047 71.163 41.065c7.933 4.549 19.949 5.133 26.832 1.166l73.145-42.231 88.662-51.097c3.033-1.749 4.55-3.966 4.666-6.299z" fill="#BDE3DF"/><path d="M123.271 414.142c0 3.733 2.566 8.283 5.833 10.149 3.266 1.867 5.832.35 5.832-3.383s-2.566-8.283-5.832-10.149c-3.267-1.867-5.833-.35-5.833 3.383z" fill="#BD0800"/><path d="M125.37 415.309c0 2.45 1.75 5.483 3.85 6.649 2.1 1.284 3.85.234 3.85-2.216s-1.75-5.483-3.85-6.65c-2.217-1.166-3.85-.233-3.85 2.217z" fill="#E6352E"/><path d="M100.405 401.192c0 3.733 2.567 8.283 5.833 10.15 3.267 1.866 5.833.35 5.833-3.384 0-3.733-2.566-8.282-5.833-10.149-3.266-1.867-5.833-.35-5.833 3.383z" fill="#BD0800"/><path d="M102.389 402.359c0 2.45 1.75 5.483 3.849 6.65 2.1 1.283 3.85.233 3.85-2.217s-1.75-5.483-3.85-6.65c-2.099-1.166-3.849-.233-3.849 2.217z" fill="#E6352E"/><path d="M364.406 416.008c0 3.734-2.566 8.283-5.833 10.15-3.266 1.866-5.833.35-5.833-3.383s2.567-8.283 5.833-10.15c3.15-1.866 5.833-.35 5.833 3.383z" fill="#BD0800"/><path d="M362.423 417.175c0 2.45-1.75 5.483-3.85 6.65-2.099 1.283-3.849.233-3.849-2.217s1.75-5.483 3.849-6.649c2.1-1.284 3.85-.234 3.85 2.216z" fill="#E6352E"/><path d="M384.472 404.342c0 3.734-2.567 8.283-5.833 10.15-3.267 1.866-5.833.35-5.833-3.383s2.566-8.283 5.833-10.15c3.149-1.866 5.833-.35 5.833 3.383z" fill="#BD0800"/><path d="M382.489 405.509c0 2.45-1.75 5.483-3.85 6.65-2.1 1.283-3.85.233-3.85-2.217s1.75-5.483 3.85-6.649c2.1-1.167 3.85-.234 3.85 2.216z" fill="#E6352E"/><path d="M193.849 454.973c0 3.733 2.566 8.283 5.833 10.149 3.266 1.867 5.833.35 5.833-3.383s-2.567-8.283-5.833-10.149c-3.267-1.867-5.833-.35-5.833 3.383z" fill="#BD0800"/><path d="M195.832 456.14c0 2.45 1.75 5.483 3.85 6.649 2.1 1.284 3.85.234 3.85-2.216s-1.75-5.483-3.85-6.65c-2.1-1.166-3.85-.233-3.85 2.217z" fill="#E6352E"/><path d="M173.667 443.424c0 3.733 2.567 8.282 5.833 10.149 3.266 1.867 5.833.35 5.833-3.383s-2.567-8.283-5.833-10.15c-3.15-1.866-5.833-.349-5.833 3.384z" fill="#BD0800"/><path d="M175.767 444.59c0 2.45 1.75 5.483 3.849 6.65 2.1 1.283 3.85.233 3.85-2.217 0-2.449-1.75-5.483-3.85-6.649-2.216-1.283-3.849-.234-3.849 2.216zm-80.962-16.331c-.466 0-.933-.117-1.283-.35-.7-.467-1.166-1.167-1.166-2.1V415.31c0-2.567 1.4-5.017 3.616-6.183l9.799-5.483 1.284.7-10.5 5.833c-1.866 1.049-3.033 3.033-3.033 5.133v10.499c0 .467.233.817.583 1.05.35.233.817.233 1.167 0l10.616-5.25 1.283.7-11.2 5.6c-.466.233-.816.35-1.166.35zm22.983 13.299c-.467 0-.934-.117-1.284-.35-.699-.467-1.166-1.167-1.166-2.1v-10.5c0-2.566 1.4-5.016 3.616-6.183l9.8-5.483 1.283.7-10.499 5.833c-1.867 1.05-3.034 3.033-3.034 5.133v10.5c0 .466.234.816.584 1.05.35.233.816.233 1.166 0l10.616-5.25 1.284.7-11.2 5.6c-.466.233-.816.35-1.166.35zm202.17 71.395h-1.167v-53.197l1.167-.7v53.897zm-17.616 10.149h-1.283v-53.08l1.283-.7v53.78zm-115.259-10.615h-1.167v-42.815c0-2.566 1.4-5.016 3.616-6.183l9.567-5.249 1.283.7-10.15 5.599c-1.866 1.05-3.033 3.034-3.033 5.133v42.815h-.116z" fill="#E6352E"/><path d="M165.383 501.637h-1.166v-42.814c0-2.567 1.4-5.016 3.616-6.183l11.083-6.183 1.283.7-11.666 6.533c-1.866 1.05-3.033 3.033-3.033 5.133v42.814h-.117zm205.672-28.231h1.167v-42.815c0-2.566-1.4-5.016-3.617-6.183l-9.566-5.249-1.283.7 10.149 5.599c1.867 1.05 3.033 3.034 3.033 5.133v42.815h.117zm21.698-10.85h1.167v-42.814c0-2.567-1.4-5.016-3.617-6.183l-11.082-6.183-1.283.7 11.665 6.533c1.867 1.05 3.034 3.033 3.034 5.133v42.814h.116z" fill="#E6352E"/><path d="M424.137 0v359.662c-.234 2.334-1.75 4.55-4.667 6.3L257.78 459.29c-6.883 3.966-18.899 3.5-26.832-1.167l-157.84-91.111c-4.317-2.567-6.534-5.716-6.534-8.749V0h357.563z" fill="url(#paint0_linear_436_810)"/><path d="M245.295 394.427l-115.377-66.613 115.377-66.613 115.493 66.613-115.493 66.613z" fill="#405251"/><path d="M245.295 427.908l-115.377-66.729v-33.365l115.377 66.613v33.481z" fill="#97BBB7"/><path d="M360.788 361.179l-115.493 66.729v-33.481l115.493-66.613v33.365z" fill="#BDE3DF"/><path d="M245.295 351.263L129.918 284.65l115.377-66.613 115.493 66.613-115.493 66.613z" fill="#405251"/><path d="M245.295 384.745l-115.377-66.613V284.65l115.377 66.613v33.482z" fill="#97BBB7"/><path d="M360.788 318.132l-115.493 66.613v-33.482l115.493-66.613v33.482z" fill="#BDE3DF"/><path d="M245.295 308.215l-115.377-66.73 115.377-66.612 115.493 66.612-115.493 66.73z" fill="#405251"/><path d="M245.295 341.58l-115.377-66.613v-33.481l115.377 66.729v33.365z" fill="#97BBB7"/><path d="M360.788 274.967L245.295 341.58v-33.365l115.493-66.729v33.481z" fill="#BDE3DF"/><path d="M245.295 265.051l-115.377-66.73 115.377-66.613 115.493 66.613-115.493 66.73z" fill="#AFD3CF"/><path d="M245.295 298.415l-115.377-66.612v-33.482l115.377 66.73v33.364z" fill="#97BBB7"/><path d="M360.788 231.803l-115.493 66.612v-33.364l115.493-66.73v33.482z" fill="#BDE3DF"/><path d="M251.712 209.288c-11.783 6.766-22.282 8.283-31.148 4.317-10.85-4.783-17.033-17.383-17.033-34.532v-39.781l6.767-5.016c20.998-15.633 37.097-36.165 37.331-36.281l4.083-5.25 4.083.467c.117 0 16.449 1.866 37.331-6.767l6.766-2.8v39.782c0 17.149-6.183 36.981-17.032 54.246-8.983 14.233-19.366 24.849-31.148 31.615z" fill="#17AA9B"/><path d="M291.96 96.011v31.965c0 14.349-5.133 31.032-14.349 45.847-6.183 9.916-14.699 19.833-25.898 26.366-11.2 6.416-19.599 6.299-25.782 3.616h-.117c-9.333-4.083-14.349-14.932-14.349-29.282v-31.964c22.749-17.033 40.248-39.315 40.248-39.315s15.982 1.983 37.331-6.066c.933-.35 1.866-.7 2.916-1.167z" fill="#007468"/><path d="M288.926 97.178v29.748c0 14.233-5.133 31.032-14.349 45.847-6.183 9.916-14.699 19.833-25.898 26.365-9.45 5.483-17.033 6.183-22.866 4.667h-.116c-9.333-4.083-14.349-14.933-14.349-29.282v-31.965c22.865-17.032 40.364-39.314 40.364-39.314s15.866 1.983 37.214-6.066z" fill="#84F9ED"/><path d="M299.893 83.529l-6.766 2.8c-1.984.816-3.967 1.516-5.833 2.216-17.966 6.067-31.265 4.55-31.382 4.55l-4.083-.467-4.083 5.25c-.117.233-16.332 20.649-37.331 36.281l-6.766 5.017v39.781c0 17.149 6.183 29.748 17.032 34.531 1.633.7 3.266 1.283 5.016 1.633-19.015-3.616-33.014-19.949-34.531-39.198-.117-2.333-.233-4.666-.233-6.999v-39.781l6.766-5.017c20.999-15.632 37.098-36.164 37.331-36.28l4.083-5.25 4.083.466c.117 0 16.449 1.867 37.331-6.766l6.767-2.8 12.599 10.033z" fill="#007468"/><path d="M251.712 92.628l-4.083 5.25c-.117.233-16.333 20.648-37.331 36.281l-6.767 5.016v39.781c0 17.149 6.183 29.749 17.033 34.532 1.633.7 3.266 1.283 5.016 1.633-19.015-3.617-33.015-19.949-34.531-39.198-.117-2.333-.234-4.666-.234-6.999v-39.781l6.767-5.017c20.999-15.632 37.098-36.164 37.331-36.281l4.083-5.25 12.716 10.033zm21.349 21.933l5.017 1.516-28.349 49.114-5.016-1.517 28.348-49.113z" fill="#007468"/><path d="M285.31 120.276l-7.233-4.199-28.348 49.113-17.966-10.266-5.133 8.983 25.082 14.583 5.249-9.1 28.349-49.114z" fill="#17AA9B"/><path d="M231.763 154.925l-5.016-1.517-5.25 8.983 5.133 1.517 5.133-8.983zm19.949 23.565l-5.016-1.516-25.199-14.583 5.133 1.517 25.082 14.582z" fill="#007468"/><defs><linearGradient id="paint0_linear_436_810" x1="245.353" y1="458.722" x2="245.353" y2="-2.254" gradientUnits="userSpaceOnUse"><stop stop-color="#0FC8B5" stop-opacity=".4"/><stop offset=".76" stop-color="#0FC8B5" stop-opacity=".05"/><stop offset="1" stop-color="#0FC8B5" stop-opacity="0"/></linearGradient></defs></svg>