<svg width="617" height="601" fill="none" xmlns="http://www.w3.org/2000/svg"><path d="M600.07 366.826c-.927 0-1.855 0-1.855-.927s-1.854-.927-3.708-.927c-3.709-.927-7.417-.927-11.126-.927-1.854 0-3.708 0-5.562-.927h-.928c-10.198-.926-21.324-2.78-31.522-5.561-2.781-.926-5.563-3.707-6.49-6.488.927 0 0 0 0 0l-7.417-1.853c3.709-26.879 1.854-54.684-3.708-81.562-6.49-26.878-17.616-52.83-32.45-76.001l5.563-5.561v-.927c0-2.78.927-6.488 2.781-8.341 8.344-7.415 16.688-12.976 25.96-18.537l5.563-2.78c3.708-1.854 6.489-3.708 10.198-5.562.927-.926 1.854-.926 2.781-1.853.928-.927 0-.927 0-1.854 8.345-6.488 10.199-17.61 3.709-25.951-2.781-3.708-8.344-6.488-12.98-6.488-4.636 0-9.271 1.853-12.98 4.634l-.927.927c-.927.927-1.854 1.854-2.781 1.854-2.782 2.78-5.563 5.561-7.417 8.341-.927 1.854-2.782 2.781-3.709 3.707-6.49 7.415-14.834 14.83-23.178 20.391-1.854.927-3.709 1.854-5.563 1.854-.927 0-2.781 0-3.708-.927h-.927l-7.418 4.634c-7.417-7.415-15.761-14.83-23.178-22.244-34.304-26.879-76.952-43.562-120.527-48.196l-.927-7.415v.927c-2.781-1.853-3.708-4.634-4.635-7.414 0-10.196 0-20.39 1.854-31.513v-.927c0-1.854.927-3.707.927-5.56.927-3.708.927-7.416 1.854-11.123v-5.56c.927-9.27-6.49-18.538-15.761-19.465-5.563-.926-11.126 1.854-15.761 6.488-3.709 3.708-5.563 8.342-5.563 12.976v4.634c0 3.708.927 7.415 1.854 11.122.927 1.854.927 3.708.927 5.561v.927c1.855 10.195 1.855 20.39 1.855 31.513-.927 2.78-1.855 5.56-4.636 7.414v1.854l-.927 7.415c-10.199.927-20.397 2.78-31.522 4.634-43.576 9.268-83.442 32.439-114.037 64.879l-5.563-3.708h-.927c-.927 0-1.855.927-3.709.927s-3.708-.927-5.563-1.853c-8.344-6.488-16.688-13.903-23.178-21.318-.927-1.853-2.781-2.78-3.708-3.707-2.782-2.781-4.636-5.561-7.417-8.342-.928-.927-1.855-.927-2.782-1.853l-.927-.927c-3.709-2.781-8.344-4.634-12.98-4.634-5.563 0-10.198 1.853-12.98 6.488-5.562 8.341-3.708 19.463 3.709 25.951.927 0 .927.927.927.927s1.854 1.853 2.781 1.853c2.782 1.854 6.49 3.708 10.199 5.562l5.563 2.78c9.271 5.561 18.542 11.122 25.959 18.537 1.855 1.853 3.709 5.561 2.782 8.341v-.926l5.562 5.561c-.927 1.853-1.854 2.78-2.781 4.634-28.741 45.415-40.794 99.171-32.45 152.001l-7.416 1.854c0 .927-.928.927-.928.927-.927 2.78-3.708 4.634-6.49 6.488a172.316 172.316 0 01-31.522 5.561c-1.854 0-3.709 0-5.563.927-3.708 0-7.417.926-11.125.926-.927 0-1.855.927-3.709.927-.927 0-.927 0-1.854.927C5.779 366.826-.71 376.094 1.144 386.289c1.854 8.342 10.198 13.903 18.542 12.976 1.855 0 2.782 0 4.636-.927.927 0 .927 0 .927-.927 0-.926 2.782 0 3.709 0 3.708-.926 7.417-2.78 10.198-3.707 1.854-.927 3.709-1.854 5.563-1.854h.927c10.198-3.707 19.47-6.487 30.595-8.341h.927c2.782 0 5.563.927 7.417 2.78.928 0 .928.927.928.927l8.344-.927c13.907 42.635 39.866 80.635 76.024 108.44 8.345 6.488 15.762 12.049 25.033 16.684l-4.636 6.487c0 .927.927.927.927.927 1.855 2.781 1.855 6.488.928 9.269-3.709 9.268-9.272 18.536-14.835 26.878v.927c-.927 1.854-1.854 2.78-3.708 4.634-1.854 1.854-3.709 5.561-6.49 9.268-.927.927-.927 1.854-1.854 2.781 0 0 0 .927-.927.927-4.636 9.268-.927 20.39 7.417 25.024 1.854.927 4.635 1.854 6.49 1.854 7.417 0 13.907-4.634 17.615-11.122 0 0 0-.927.927-.927 0-.927.927-1.853 1.854-2.78.928-3.708 2.782-6.488 3.709-10.196l1.854-5.561c2.782-10.195 7.417-19.463 12.053-28.732 1.854-2.78 4.636-4.634 7.417-5.561.927 0 .927 0 .927-.926l3.709-7.415c25.959 10.195 52.846 14.829 80.66 14.829 16.688 0 33.377-1.853 50.065-6.488 10.198-1.853 20.397-5.561 29.668-8.341l3.709 6.488c.927 0 .927 0 .927.927 2.781.926 5.563 2.78 7.417 5.561 4.635 9.268 9.271 18.536 12.052 28.732v.926l1.855 5.561c.927 3.708 1.854 7.415 3.708 10.196.927.927.927 1.853 1.855 2.78 0 0-.001.927.927.927 3.708 6.488 10.198 11.122 17.615 11.122 2.781 0 4.636-.927 7.417-1.854 3.709-1.853 7.417-5.561 8.344-10.195.927-4.634.927-9.268-.927-13.902 0-.927-.927-.927-.927-.927 0-.927-.927-1.854-1.854-2.781-1.854-3.707-3.709-6.488-6.49-9.268-.927-1.854-1.854-2.781-3.709-4.634v-1.854c-6.49-8.342-11.125-17.61-14.834-26.878-.927-2.781-.927-6.488.927-9.269 0-.927.928-.927.928-.927l-2.782-7.414c47.284-28.732 83.442-73.221 100.13-126.05l7.417.927c.927 0 .927-.927.927-.927 1.855-1.854 4.636-2.781 7.417-2.781h.928c10.198 1.854 20.396 4.634 29.668 8.342h.927c1.854.927 3.708 1.853 5.563 1.853 3.708 1.854 6.489 3.708 10.198 4.635.927 0 1.854.926 3.708.926.928 0 .928 0 1.855.927 1.854.927 2.781.927 4.635.927 8.345 0 15.762-5.561 18.543-12.976-.927-10.195-8.344-17.61-16.688-19.463zm-267.941-28.732l-25.032 12.049-25.033-12.049-6.49-26.879 17.616-22.244h27.814l17.615 22.244-6.49 26.879zm151.122-60.245c4.636 19.464 5.563 38.927 3.709 58.391l-88.078-25.025c-8.344-1.853-12.979-10.195-11.125-18.536.927-2.781 1.854-4.635 3.708-6.488L461 223.166c10.199 16.683 17.616 35.22 22.251 54.683zm-50.065-88.976l-76.024 53.756c-6.49 3.708-15.762 2.781-20.397-3.707-1.854-1.854-2.782-3.707-2.782-6.488l-5.562-93.611c40.793 4.635 76.951 22.245 104.765 50.05zm-167.81-47.269l18.542-3.707-4.635 92.683c0 8.342-7.417 14.83-15.761 14.83-2.782 0-4.636-.927-7.417-1.854l-76.952-54.683c24.105-23.171 53.773-39.854 86.223-47.269zm-113.11 81.562l68.608 61.171c6.49 5.561 7.417 14.83 1.854 21.317-1.854 2.781-3.709 3.708-7.417 4.635l-89.932 25.951c-2.781-38.927 6.49-78.781 26.887-113.074zm-15.761 156.635l91.786-15.756c7.417 0 14.834 4.634 15.761 12.049.927 2.781.927 6.488-.927 9.269l-35.231 85.269c-32.45-21.318-58.409-53.757-71.389-90.831zm210.458 114.928c-12.98 2.781-25.959 4.635-39.866 4.635-19.47 0-39.867-3.708-58.409-9.269l45.429-82.488c4.635-5.561 12.053-7.415 18.542-3.708 2.782 1.854 4.636 3.708 7.417 6.488l44.503 80.635c-5.563.927-11.126 1.854-17.616 3.707zm113.11-80.634c-13.907 22.244-33.377 41.707-55.628 55.61l-36.158-87.123c-1.854-7.415 1.854-14.829 8.344-17.61 2.782-.927 5.563-1.854 8.345-1.854l92.713 15.757c-4.636 12.975-10.199 25.024-17.616 35.22z" fill="url(#paint0_linear_437_1316)"/><defs><linearGradient id="paint0_linear_437_1316" x1=".828" y1="300.468" x2="616.747" y2="303.087" gradientUnits="userSpaceOnUse"><stop stop-color="#003C40"/><stop offset="1" stop-color="#21B6A7"/></linearGradient></defs></svg>