<svg width="570" height="570" fill="none" xmlns="http://www.w3.org/2000/svg"><path d="M381.721 160.244c3.918 2.11 3.316 6.179 7.083 7.686 2.864 1.055 9.495-2.712 11.454-4.37 2.11-1.808 3.466-4.22 3.767-5.124 1.357-4.22.302-11.001-2.26-14.769-1.959-3.014-9.495-11.453-16.879-8.138.301-.753 5.425-14.317-5.425-30.291-2.713-4.069-7.385-7.988-12.207-9.645a13.51 13.51 0 00-8.44-.151c-2.11.603-5.124 1.808-5.124 1.808-1.205-4.37-2.26-8.288-4.822-12.508-4.672-7.535-15.221-17.783-24.866-17.18-1.96.15-3.768.452-5.426 1.205-2.863 1.055-9.645 3.014-11.302 4.37-3.919 2.864.452 9.646 1.959 14.92-3.768-.904-7.234-.904-10.248 0-2.411.754-10.7 3.467-11.454 4.22-1.657 1.96 3.467 4.823 3.467 8.289.15 9.946 4.822 16.879 11.905 21.098l78.818 38.58z" fill="#BFD9E0"/><path d="M394.983 161.601c-.603 1.658-5.124 9.042-11.001 6.631-3.768-1.507-7.385-2.863-11.303-4.973l-40.69-19.893-7.083-3.466-30.743-15.07c-7.084-4.22-11.755-11.153-11.906-21.099-.151-10.7 7.987-15.07 18.084-12.66-3.164-10.247 4.22-19.892 14.769-20.495 9.495-.603 20.195 9.645 24.866 17.18 2.864 4.672 3.768 8.892 5.275 14.016 2.261-3.316 7.686-5.124 13.262-3.316 4.823 1.507 9.344 5.576 12.056 9.645 10.851 15.975 5.576 29.538 5.426 30.292 7.384-3.316 14.919 5.124 16.878 8.138 2.412 4.069 3.467 11.001 2.11 15.07z" fill="#DBEDF2"/><path d="M164.198 315.746l-90.826-37.322 83.059-38.617 91.041 37.969-83.274 37.97zm-85.217-37.322l85.217 34.949 77.881-35.381-85.432-35.812-77.666 36.244z" fill="#E5352E"/><path opacity=".2" d="M410.786 214.134l-56.955 26.536 62.348 25.457 56.955-25.889-62.348-26.104z" fill="#1A1A1A"/><path d="M414.667 275.187l-90.61-37.323 83.059-38.617 91.041 37.97-83.49 37.97zm-85.217-37.539l85.217 34.95 77.881-35.381-85.217-35.597-77.881 36.028zm-63.641 243.137l-93.846-47.031.647-1.079 93.63 47.031-.431 1.079zm188.988-38.616L353.4 401.826l.648-1.079 101.396 40.127-.647 1.295zM62.369 381.546L4.55 352.205c-2.805-1.078-4.315-2.589-4.53-4.315-.216-1.725 1.294-3.667 3.883-4.962l106.143-49.403 1.726.647L4.551 344.007c-2.157 1.079-3.236 2.373-3.236 3.668 0 1.294 1.51 2.373 3.667 3.236l57.602 29.34-.215 1.295z" fill="#E5352E"/><path opacity=".2" d="M158.373 252.103l-57.171 26.536 62.348 25.673 57.171-26.105-62.348-26.104z" fill="#1A1A1A"/><path d="M367.422 89.652v144.976l53.287 22.005 48.541-22.005V89.221l-101.828.431z" fill="#AFD3CF"/><path d="M420.709 111.442l-53.287-22.005v145.192l53.287 22.005V111.442z" fill="#97BBB7"/><path d="M416.179 116.405l-44.226-18.122v103.985l44.226-26.32v-59.543z" fill="url(#paint0_linear_436_913)"/><path d="M415.963 67l-48.541 22.437 53.287 22.005 48.541-22.221L415.963 67z" fill="#BDE3DF"/><path d="M418.336 70.236l-42.932 20.063-1.51-.647 42.931-19.848 1.511.432zm3.452 1.509l-42.716 19.848-1.51-.431 42.931-19.848 1.295.431zm3.451 1.511l-42.932 19.848-1.294-.431 42.932-19.848 1.294.431zm3.668 1.511l-42.932 19.848-1.294-.647 42.716-19.848 1.51.647z" fill="#17AA9B"/><path d="M412.511 116.836c.647 0 1.294.863 1.294 2.589 0 1.942-.647 2.589-1.294 2.589s-1.294-.647-1.294-2.589c-.216-1.942.431-2.589 1.294-2.589zm-37.323-14.886c.647 0 1.294.863 1.294 2.589 0 1.941-.647 2.589-1.294 2.589s-1.294-.648-1.294-2.589c0-1.942.647-2.589 1.294-2.589zm37.323 139.151c.647 0 1.294.863 1.294 2.589 0 1.941-.647 2.589-1.294 2.589s-1.294-.648-1.294-2.589c-.216-1.942.431-2.589 1.294-2.589z" fill="#EDEDED"/><path d="M375.188 226.215c.647 0 1.294.863 1.294 2.588 0 1.942-.647 2.589-1.294 2.589s-1.294-.647-1.294-2.589c0-1.941.647-2.588 1.294-2.588z" fill="url(#paint1_linear_436_913)"/><path d="M374.757 227.293c.215 0 .647.648.647 1.51 0 .863-.216 1.511-.647 1.511-.216 0-.648-.648-.648-1.511 0-.862.216-1.51.648-1.51zm91.042-49.835v3.02l-41.422 18.769v-3.02l40.774-18.338.648-.431z" fill="#83F9ED"/><path d="M465.799 177.458v3.02l-41.422 18.769v-1.294l40.774-18.553v-1.511l.648-.431z" fill="#17AA9B"/><path d="M465.799 183.93v2.805l-41.422 18.984v-3.02l40.774-18.338.648-.431z" fill="#83F9ED"/><path d="M465.799 183.93v2.805l-41.422 18.984v-1.294l40.774-18.553v-1.511l.648-.431z" fill="#17AA9B"/><path d="M465.799 190.402v2.805l-41.422 18.984v-3.236l40.774-18.122.648-.431z" fill="#83F9ED"/><path d="M465.799 190.402v2.805l-41.422 18.984v-1.294l40.774-18.553v-1.511l.648-.431z" fill="#17AA9B"/><path d="M465.799 196.659v3.02l-41.422 18.77v-3.021l40.774-18.337.648-.432z" fill="#83F9ED"/><path d="M465.799 196.659v3.02l-41.422 18.77v-1.295l40.774-18.553v-1.51l.648-.432z" fill="#17AA9B"/><path d="M465.799 203.131v2.804l-41.422 18.985v-3.02l40.774-18.338.648-.431z" fill="#83F9ED"/><path d="M465.799 203.131v2.804l-41.422 18.985v-1.294l40.774-18.554v-1.51l.648-.431z" fill="#17AA9B"/><path d="M465.799 209.603v2.805l-41.422 18.985v-3.236l40.774-18.122.648-.432z" fill="#83F9ED"/><path d="M465.799 209.603v2.805l-41.422 18.985v-1.295l40.774-18.553v-1.51l.648-.432z" fill="#17AA9B"/><path d="M465.799 215.859v3.02l-41.422 18.77v-3.021l40.774-18.337.648-.432z" fill="#83F9ED"/><path d="M465.799 215.859v3.02l-41.422 18.77v-1.295l40.774-18.553v-1.51l.648-.432z" fill="#17AA9B"/><path d="M465.799 222.331v2.804l-41.422 18.985v-3.02l40.774-18.338.648-.431z" fill="#83F9ED"/><path d="M465.799 222.331v2.804l-41.422 18.985v-1.294l40.774-18.554v-1.51l.648-.431zm.431-127.068l-41.853 18.984v19.417l41.853-18.985V95.263z" fill="#17AA9B"/><mask id="a" style="mask-type:alpha" maskUnits="userSpaceOnUse" x="442" y="100" width="22" height="13"><path d="M442.07 110.364v2.157l21.79-9.923v-2.158l-21.79 9.924z" fill="url(#paint2_linear_436_913)"/></mask><g mask="url(#a)"><path opacity=".6" d="M442.067 110.364v2.157l21.79-9.923v-2.158l-21.79 9.924z" fill="#83F9ED"/></g><mask id="b" style="mask-type:alpha" maskUnits="userSpaceOnUse" x="442" y="104" width="22" height="13"><path d="M442.07 114.031v2.157l21.79-9.924v-2.157l-21.79 9.924z" fill="url(#paint3_linear_436_913)"/></mask><g mask="url(#b)"><path opacity=".6" d="M442.067 114.031v2.158l21.79-9.924v-2.157l-21.79 9.923z" fill="#83F9ED"/></g><path d="M466.23 120.935l-41.853 18.984v19.417l41.853-18.985v-19.416z" fill="#17AA9B"/><mask id="c" style="mask-type:alpha" maskUnits="userSpaceOnUse" x="442" y="125" width="22" height="13"><path d="M442.07 135.82v2.157l21.79-9.924v-2.157l-21.79 9.924z" fill="url(#paint4_linear_436_913)"/></mask><g mask="url(#c)"><path opacity=".6" d="M442.067 135.82v2.158l21.79-9.924v-2.158l-21.79 9.924z" fill="#83F9ED"/></g><mask id="d" style="mask-type:alpha" maskUnits="userSpaceOnUse" x="442" y="129" width="22" height="13"><path d="M442.07 139.703v2.157l21.79-9.923v-2.158l-21.79 9.924z" fill="url(#paint5_linear_436_913)"/></mask><g mask="url(#d)"><path opacity=".6" d="M442.067 139.704v2.157l21.79-9.924v-2.157l-21.79 9.924z" fill="#83F9ED"/></g><path d="M466.23 146.607l-41.853 18.985v19.417l41.853-18.985v-19.417z" fill="#17AA9B"/><mask id="e" style="mask-type:alpha" maskUnits="userSpaceOnUse" x="442" y="151" width="22" height="13"><path d="M442.07 161.493v2.158l21.79-9.924v-2.158l-21.79 9.924z" fill="url(#paint6_linear_436_913)"/></mask><g mask="url(#e)"><path opacity=".6" d="M442.067 161.493v2.157l21.79-9.924v-2.157l-21.79 9.924z" fill="#83F9ED"/></g><mask id="f" style="mask-type:alpha" maskUnits="userSpaceOnUse" x="442" y="155" width="22" height="13"><path d="M442.07 165.376v2.157l21.79-9.924v-2.157l-21.79 9.924z" fill="url(#paint7_linear_436_913)"/></mask><g mask="url(#f)"><path opacity=".6" d="M442.067 165.376v2.158l21.79-9.924v-2.157l-21.79 9.923z" fill="#83F9ED"/></g><path d="M109.185 127.19v145.192l53.071 22.005 48.757-22.005V126.975l-101.828.215z" fill="#AFD3CF"/><path d="M162.256 149.196l-53.071-22.005v145.191l53.071 22.005V149.196z" fill="#97BBB7"/><path d="M157.726 154.158l-44.01-18.122v103.986l44.01-26.32v-59.544z" fill="url(#paint8_linear_436_913)"/><path d="M157.726 104.754l-48.541 22.436 53.071 21.79 48.757-22.005-53.287-22.221z" fill="#BDE3DF"/><path d="M159.883 107.989l-42.931 19.848-1.295-.432 42.932-19.848 1.294.432zm3.668 1.511l-42.931 19.848-1.295-.647 42.716-19.848 1.51.647zm3.452 1.51l-42.931 19.848-1.51-.647 42.931-19.848 1.51.647zm3.45 1.51l-42.716 19.848-1.51-.647 42.931-19.848 1.295.647z" fill="#17AA9B"/><path d="M154.058 154.59c.647 0 1.295.863 1.295 2.589 0 1.941-.648 2.589-1.295 2.589-.647 0-1.294-.648-1.294-2.589 0-1.942.647-2.589 1.294-2.589zm-37.106-14.887c.647 0 1.294.863 1.294 2.589 0 1.942-.647 2.589-1.294 2.589-.648 0-1.295-.647-1.295-2.589s.647-2.589 1.295-2.589zm37.106 139.152c.647 0 1.295.863 1.295 2.588 0 1.942-.648 2.589-1.295 2.589-.647 0-1.294-.647-1.294-2.589 0-1.941.647-2.588 1.294-2.588zm-37.106-14.887c.647 0 1.294.863 1.294 2.589 0 1.941-.647 2.588-1.294 2.588-.648 0-1.295-.647-1.295-2.588 0-1.942.647-2.589 1.295-2.589z" fill="#EDEDED"/><path d="M207.345 215.213v2.804l-41.206 18.985v-3.02l40.558-18.338.648-.431z" fill="#83F9ED"/><path d="M207.345 215.213v2.804l-41.206 18.985v-1.294l40.558-18.554v-1.51l.648-.431z" fill="#17AA9B"/><path d="M207.345 221.684v2.804l-41.206 18.985v-3.236l40.558-18.122.648-.431z" fill="#83F9ED"/><path d="M207.345 221.684v2.804l-41.206 18.985v-1.294l40.558-18.554v-1.51l.648-.431z" fill="#17AA9B"/><path d="M207.345 228.156v2.804l-41.206 18.77v-3.021l40.558-18.337.648-.216z" fill="#83F9ED"/><path d="M207.345 228.156v2.804l-41.206 18.77v-1.295l40.558-18.553v-1.51l.648-.216z" fill="#17AA9B"/><path d="M207.345 234.412v2.805l-41.206 18.985v-3.021l40.558-18.337.648-.432z" fill="#83F9ED"/><path d="M207.345 234.412v2.805l-41.206 18.985v-1.295l40.558-18.553v-1.51l.648-.432z" fill="#17AA9B"/><path d="M207.345 240.884v2.804l-41.206 18.985v-3.236l40.558-18.122.648-.431z" fill="#83F9ED"/><path d="M207.345 240.884v2.804l-41.206 18.985v-1.294l40.558-18.554v-1.51l.648-.431z" fill="#17AA9B"/><path d="M207.345 247.356v2.805l-41.206 18.985v-3.236l40.558-18.338.648-.216z" fill="#83F9ED"/><path d="M207.345 247.356v2.805l-41.206 18.985v-1.51l40.558-18.554v-1.51l.648-.216z" fill="#17AA9B"/><path d="M207.345 253.613v3.02l-41.206 18.769v-3.02l40.558-18.338.648-.431z" fill="#83F9ED"/><path d="M207.345 253.613v3.02l-41.206 18.769v-1.294l40.558-18.554v-1.51l.648-.431z" fill="#17AA9B"/><path d="M207.345 260.086v2.804l-41.206 18.985v-3.02l40.558-18.338.648-.431z" fill="#83F9ED"/><path d="M207.345 260.086v2.804l-41.206 18.985v-1.294l40.558-18.554v-1.51l.648-.431zm.647-127.07l-41.853 18.985v19.417l41.853-18.985v-19.417z" fill="#17AA9B"/><mask id="g" style="mask-type:alpha" maskUnits="userSpaceOnUse" x="183" y="137" width="23" height="14"><path d="M183.615 147.902v2.158l22.005-9.924v-2.157l-22.005 9.923z" fill="url(#paint9_linear_436_913)"/></mask><g mask="url(#g)"><path opacity=".6" d="M183.614 147.902v2.157l22.006-9.924v-2.157l-22.006 9.924z" fill="#83F9ED"/></g><mask id="h" style="mask-type:alpha" maskUnits="userSpaceOnUse" x="183" y="141" width="23" height="13"><path d="M183.615 151.786v2.158l22.005-9.924v-2.157l-22.005 9.923z" fill="url(#paint10_linear_436_913)"/></mask><g mask="url(#h)"><path opacity=".6" d="M183.614 151.785v2.158l22.006-9.924v-2.158l-22.006 9.924z" fill="#83F9ED"/></g><path d="M207.992 158.689l-41.853 18.985v19.416l41.853-18.985v-19.416z" fill="#17AA9B"/><mask id="i" style="mask-type:alpha" maskUnits="userSpaceOnUse" x="183" y="163" width="23" height="13"><path d="M183.615 173.575v2.157l22.005-9.924v-2.157l-22.005 9.924z" fill="url(#paint11_linear_436_913)"/></mask><g mask="url(#i)"><path opacity=".6" d="M183.614 173.575v2.157l22.006-9.924v-2.157l-22.006 9.924z" fill="#83F9ED"/></g><mask id="j" style="mask-type:alpha" maskUnits="userSpaceOnUse" x="183" y="167" width="23" height="13"><path d="M183.615 177.459v2.157l22.005-9.924v-2.157l-22.005 9.924z" fill="url(#paint12_linear_436_913)"/></mask><g mask="url(#j)"><path opacity=".6" d="M183.614 177.458v2.157l22.006-9.924v-2.157l-22.006 9.924z" fill="#83F9ED"/></g><path d="M207.992 184.145l-41.853 19.201v19.2l41.853-18.985v-19.416z" fill="#17AA9B"/><mask id="k" style="mask-type:alpha" maskUnits="userSpaceOnUse" x="183" y="189" width="23" height="13"><path d="M183.615 199.247v2.157l22.005-9.924v-2.157l-22.005 9.924z" fill="url(#paint13_linear_436_913)"/></mask><g mask="url(#k)"><path opacity=".6" d="M183.614 199.246v2.157l22.006-9.923v-2.158l-22.006 9.924z" fill="#83F9ED"/></g><mask id="l" style="mask-type:alpha" maskUnits="userSpaceOnUse" x="183" y="192" width="23" height="14"><path d="M183.615 203.129v1.942l22.005-9.924v-2.157l-22.005 10.139z" fill="url(#paint14_linear_436_913)"/></mask><g mask="url(#l)"><path opacity=".6" d="M183.614 203.13v1.941l22.006-9.924v-2.157l-22.006 10.14z" fill="#83F9ED"/></g><path opacity=".2" d="M275.518 315.314l-84.785 44.874 135.052 69.467 101.181-51.129-151.448-63.212z" fill="#1A1A1A"/><path d="M429.338 254.476c.216-2.157-1.51-4.53-3.667-5.177l-130.737-64.937c-2.158-.648-7.767 2.373-7.767 4.746l-1.294 97.729c-.216 2.157 1.51 4.531 3.667 5.178l127.501 67.31c2.158.647 7.12-3.02 7.335-5.393l4.962-99.456z" fill="#405251"/><path d="M425.456 256.85c0-2.157-1.511-4.53-3.668-5.177l-130.737-64.938c-2.158-.647-4.099.648-4.099 3.021l-4.962 99.455c-.216 2.157 1.51 4.53 3.667 5.178l130.738 64.937c2.157.647 4.099-.648 4.099-3.021l4.962-99.455z" fill="#487774"/><path d="M420.494 255.771l-4.962 96.866-129.011-63.858 4.962-96.651 129.011 63.643zM275.518 300.86c-2.373-.647-6.041-.216-8.198 1.079l-75.94 35.812c-2.157 1.295 2.589 11.219 4.962 11.866l126.854 64.505c2.805 1.079 5.393.648 8.198-1.078l83.491-41.206c2.157-1.295 4.53-11.003 2.157-11.65L275.518 300.86z" fill="#405251"/><path d="M277.028 295.25c3.236-1.51 8.414-1.51 11.65 0l127.069 63.858c3.236 1.51 3.236 4.315 0 5.825l-83.706 40.99c-3.883 1.942-7.767 2.158-11.65 0l-127.069-63.858c-3.236-1.51-3.236-4.315 0-5.825l83.706-40.99z" fill="#487774"/><path d="M267.319 347.459c.863-.431 2.373-.431 3.236 0l35.165 17.69c.863.432.863 1.079 0 1.511l-23.084 11.218c-1.078.647-2.157.647-3.236 0l-35.165-17.691c-.863-.431-.863-1.078 0-1.51l23.084-11.218z" fill="#436462"/><path d="M305.721 366.876l-34.949-17.475c-.863-.431-2.373-.431-3.236 0l-23.084 11.218-.432-.215c-.863-.432-.863-1.079 0-1.51l23.084-11.219c.863-.431 2.373-.431 3.236 0l35.166 17.691c1.078.215 1.078 1.078.215 1.51z" fill="#405251"/><path d="M281.342 304.959c1.51-.863 4.099-.647 5.609 0l108.732 54.366c1.51.863 1.51 1.941 0 2.804l-40.127 19.632c-1.942 1.079-3.668 1.079-5.609 0l-108.732-54.365c-1.511-.863-1.511-1.942 0-2.805l40.127-19.632z" fill="#436462"/><path d="M395.683 362.129l-108.516-54.15c-1.51-.863-4.099-.863-5.609 0l-39.912 19.632-.431-.215c-1.511-.863-1.511-1.942 0-2.805l40.127-19.632c1.51-.863 4.099-.647 5.609 0l108.732 54.366c1.51.863 1.51 2.157 0 2.804z" fill="#405251"/><path d="M252.65 325.455l-4.747 2.373 104.849 52.424 4.962-2.373-105.064-52.424zm7.336-3.669l-4.747 2.374 104.849 52.424 4.962-2.373-105.064-52.425zm7.334-3.451l-4.962 2.373 105.065 52.424 4.746-2.373-104.849-52.424zm25.457-3.668l-4.962 2.373-8.845-4.53 4.746-2.373 9.061 4.53zm10.786 5.178l-4.962 2.374-9.061-4.531 4.746-2.373 9.277 4.53zm10.571 5.394l-4.962 2.373-9.061-4.531 4.962-2.373 9.061 4.531zm10.571 5.393l-4.747 2.373-9.061-4.53 4.747-2.374 9.061 4.531zm10.789 5.393l-4.962 2.373-9.061-4.53 4.962-2.373 9.061 4.53zm10.57 5.178l-4.962 2.373-8.845-4.53 4.746-2.374 9.061 4.531zm10.787 5.394l-4.962 2.373-9.061-4.53 4.962-2.374 9.061 4.531zm10.571 5.393l-4.962 2.373-9.061-4.53 4.962-2.373 9.061 4.53zm10.572 5.178l-4.746 2.373-9.061-4.314 4.962-2.373 8.845 4.314zm10.786 5.393l-4.962 2.373-9.061-4.531 4.962-2.373 9.061 4.531zm-103.554-42.5l-4.962 2.373-10.786-5.393 4.962-2.373 10.786 5.393zm94.061 47.246l-4.746 2.374-89.315-44.658 4.962-2.373 89.099 44.657z" fill="#405251"/><path opacity=".2" d="M481.117 438.715l-56.955 26.32 62.348 25.673 57.171-25.889-62.564-26.104z" fill="#1A1A1A"/><path d="M486.725 503.006l-90.826-37.322 83.059-38.617L570 465.036l-83.275 37.97zm-85.216-37.322l85.216 34.949 77.881-35.381-85.216-35.597-77.881 36.029z" fill="#E5352E"/><path d="M193.536 442.599c5.61 3.021 4.747 8.846 10.14 11.003 4.099 1.51 13.591-3.883 16.396-6.256 3.02-2.589 4.962-6.041 5.394-7.335 1.941-6.041.431-15.749-3.237-21.143-2.804-4.315-13.591-16.396-24.162-11.65.431-1.078 7.766-20.495-7.767-43.363-3.883-5.825-10.571-11.434-17.474-13.807a19.341 19.341 0 00-12.082-.216c-3.02.863-7.335 2.589-7.335 2.589-1.726-6.256-3.236-11.866-6.904-17.906-6.687-10.787-21.789-25.457-35.596-24.594-2.805.215-5.394.647-7.767 1.726-4.099 1.51-13.807 4.314-16.18 6.256-5.61 4.099.647 13.807 2.804 21.358-5.393-1.294-10.355-1.294-14.67 0-3.452 1.079-15.317 4.962-16.396 6.041-2.373 2.804 4.962 6.903 4.962 11.865.216 14.239 6.904 24.163 17.043 30.204l112.831 55.228z" fill="#BFD9E0"/><path d="M212.522 444.541c-.863 2.373-7.335 12.945-15.749 9.493-5.393-2.158-10.571-4.099-16.18-7.12l-58.249-28.477-10.14-4.962-44.01-21.574c-10.14-6.04-16.828-15.964-17.044-30.203-.215-15.317 11.434-21.574 25.889-18.122-4.53-14.67 6.04-28.477 21.142-29.34 13.592-.863 28.909 13.807 35.597 24.594 4.099 6.688 5.393 12.728 7.551 20.063 3.236-4.746 11.002-7.335 18.985-4.746 6.903 2.158 13.375 7.983 17.259 13.807 15.533 22.869 7.982 42.285 7.766 43.364 10.571-4.746 21.358 7.335 24.163 11.65 3.452 5.825 4.962 15.748 3.02 21.573z" fill="#DBEDF2"/><path d="M432.574 312.941v145.191l53.287 22.005 48.541-22.221V312.509l-101.828.432z" fill="#AFD3CF"/><path d="M485.861 334.946l-53.287-22.005v145.191l53.287 22.005V334.946z" fill="#97BBB7"/><path d="M481.115 339.909l-44.011-18.338v104.201l44.011-26.535v-59.328z" fill="url(#paint15_linear_436_913)"/><path d="M481.115 290.288l-48.541 22.653 53.072 21.789 48.756-22.221-53.287-22.221z" fill="#BDE3DF"/><path d="M477.448 340.34c.647 0 1.294.863 1.294 2.589 0 1.941-.647 2.589-1.294 2.589-.648 0-1.295-.648-1.295-2.589 0-1.942.647-2.589 1.295-2.589zm-37.109-15.102c.648 0 1.295.863 1.295 2.589 0 1.941-.647 2.588-1.295 2.588-.647 0-1.294-.647-1.294-2.588 0-1.942.647-2.589 1.294-2.589zm37.109 139.365c.647 0 1.294.863 1.294 2.589 0 1.942-.647 2.589-1.294 2.589-.648 0-1.295-.647-1.295-2.589 0-1.941.647-2.589 1.295-2.589zm-37.109-14.886c.648 0 1.295.863 1.295 2.589 0 1.942-.647 2.589-1.295 2.589-.647 0-1.294-.647-1.294-2.589s.647-2.589 1.294-2.589z" fill="#EDEDED"/><path d="M531.381 318.766l-41.853 18.985v19.416l41.853-18.985v-19.416z" fill="#17AA9B"/><path d="M510.886 341.85l-15.318 6.903v3.236l15.318-6.903v-3.236z" fill="#83F9ED"/><path d="M531.381 343.144l-41.853 18.984v19.417l41.853-18.985v-19.416z" fill="#17AA9B"/><path d="M510.886 366.227l-15.318 6.903v3.236l15.318-6.903v-3.236z" fill="#83F9ED"/><path d="M531.381 367.522l-41.853 18.985v19.416l41.853-18.985v-19.416z" fill="#17AA9B"/><path d="M510.886 390.605l-15.318 6.904v3.236l15.318-6.904v-3.236z" fill="#83F9ED"/><path d="M531.381 391.901l-41.853 18.985v19.417l41.853-18.985v-19.417z" fill="#17AA9B"/><path d="M510.886 414.984l-15.318 6.903v3.237l15.318-6.904v-3.236z" fill="#83F9ED"/><path d="M531.381 416.279l-41.853 18.985v19.416l41.853-18.985v-19.416z" fill="#17AA9B"/><path d="M510.886 439.362l-15.318 7.12v3.02l15.318-6.904v-3.236z" fill="#83F9ED"/><path d="M280.05 497.828c-5.61 0-10.787-1.079-14.671-3.021-4.099-1.941-6.256-4.746-6.256-7.55 0-2.805 2.157-5.61 6.256-7.551 3.884-1.942 9.277-3.021 14.671-3.021 5.393 0 10.787 1.079 14.67 3.021 4.099 1.941 6.256 4.746 6.256 7.551 0 2.804-2.157 5.609-6.256 7.55-3.883 1.942-9.277 3.021-14.67 3.021zm0-19.848c-10.787 0-19.633 4.099-19.633 9.277 0 5.177 8.846 9.276 19.633 9.276 10.786 0 19.632-4.099 19.632-9.276-.216-5.178-8.846-9.277-19.632-9.277z" fill="#E5352E"/><path d="M280.05 491.14c-1.942 0-3.884-.431-5.394-1.079-1.51-.647-2.373-1.725-2.373-2.804 0-1.079.863-1.942 2.373-2.805 1.51-.647 3.452-1.078 5.394-1.078 1.941 0 3.883.431 5.393 1.078 1.51.647 2.373 1.726 2.373 2.805 0 1.079-.863 1.941-2.373 2.804-1.51.648-3.452 1.079-5.393 1.079z" fill="#E5352E"/><defs><linearGradient id="paint0_linear_436_913" x1="394.066" y1="98.283" x2="394.066" y2="202.268" gradientUnits="userSpaceOnUse"><stop stop-color="#fff" stop-opacity=".5"/><stop offset="1" stop-color="#fff" stop-opacity="0"/></linearGradient><linearGradient id="paint1_linear_436_913" x1="375.26" y1="220.99" x2="375.26" y2="236.179" gradientUnits="userSpaceOnUse"><stop stop-color="#DFDFFB"/><stop offset=".34" stop-color="#D2D3FA"/><stop offset=".972" stop-color="#AFB4F6"/><stop offset="1" stop-color="#ADB2F6"/></linearGradient><linearGradient id="paint2_linear_436_913" x1="452.99" y1="54.735" x2="452.99" y2="175.427" gradientUnits="userSpaceOnUse"><stop stop-color="#666"/><stop offset=".496" stop-color="#fff"/><stop offset=".996" stop-color="#666"/></linearGradient><linearGradient id="paint3_linear_436_913" x1="452.99" y1="58.536" x2="452.99" y2="179.249" gradientUnits="userSpaceOnUse"><stop stop-color="#666"/><stop offset=".496" stop-color="#fff"/><stop offset=".996" stop-color="#666"/></linearGradient><linearGradient id="paint4_linear_436_913" x1="452.99" y1="80.329" x2="452.99" y2="201.041" gradientUnits="userSpaceOnUse"><stop stop-color="#666"/><stop offset=".496" stop-color="#fff"/><stop offset=".996" stop-color="#666"/></linearGradient><linearGradient id="paint5_linear_436_913" x1="452.99" y1="84.149" x2="452.99" y2="204.841" gradientUnits="userSpaceOnUse"><stop stop-color="#666"/><stop offset=".496" stop-color="#fff"/><stop offset=".996" stop-color="#666"/></linearGradient><linearGradient id="paint6_linear_436_913" x1="452.99" y1="105.936" x2="452.99" y2="226.649" gradientUnits="userSpaceOnUse"><stop stop-color="#666"/><stop offset=".496" stop-color="#fff"/><stop offset=".996" stop-color="#666"/></linearGradient><linearGradient id="paint7_linear_436_913" x1="452.99" y1="109.748" x2="452.99" y2="230.453" gradientUnits="userSpaceOnUse"><stop stop-color="#666"/><stop offset=".496" stop-color="#fff"/><stop offset=".996" stop-color="#666"/></linearGradient><linearGradient id="paint8_linear_436_913" x1="135.721" y1="136.036" x2="135.721" y2="240.022" gradientUnits="userSpaceOnUse"><stop stop-color="#fff" stop-opacity=".5"/><stop offset="1" stop-color="#fff" stop-opacity="0"/></linearGradient><linearGradient id="paint9_linear_436_913" x1="194.65" y1="92.429" x2="194.65" y2="213.132" gradientUnits="userSpaceOnUse"><stop stop-color="#666"/><stop offset=".496" stop-color="#fff"/><stop offset=".996" stop-color="#666"/></linearGradient><linearGradient id="paint10_linear_436_913" x1="194.65" y1="96.25" x2="194.65" y2="216.932" gradientUnits="userSpaceOnUse"><stop stop-color="#666"/><stop offset=".496" stop-color="#fff"/><stop offset=".996" stop-color="#666"/></linearGradient><linearGradient id="paint11_linear_436_913" x1="194.65" y1="118.03" x2="194.65" y2="238.743" gradientUnits="userSpaceOnUse"><stop stop-color="#666"/><stop offset=".496" stop-color="#fff"/><stop offset=".996" stop-color="#666"/></linearGradient><linearGradient id="paint12_linear_436_913" x1="194.65" y1="121.851" x2="194.65" y2="242.542" gradientUnits="userSpaceOnUse"><stop stop-color="#666"/><stop offset=".496" stop-color="#fff"/><stop offset=".996" stop-color="#666"/></linearGradient><linearGradient id="paint13_linear_436_913" x1="194.65" y1="143.639" x2="194.65" y2="264.341" gradientUnits="userSpaceOnUse"><stop stop-color="#666"/><stop offset=".496" stop-color="#fff"/><stop offset=".996" stop-color="#666"/></linearGradient><linearGradient id="paint14_linear_436_913" x1="194.65" y1="147.458" x2="194.65" y2="268.141" gradientUnits="userSpaceOnUse"><stop stop-color="#666"/><stop offset=".496" stop-color="#fff"/><stop offset=".996" stop-color="#666"/></linearGradient><linearGradient id="paint15_linear_436_913" x1="459.11" y1="321.571" x2="459.11" y2="425.772" gradientUnits="userSpaceOnUse"><stop stop-color="#fff" stop-opacity=".5"/><stop offset="1" stop-color="#fff" stop-opacity="0"/></linearGradient></defs></svg>