<svg width="170" height="40" viewBox="0 0 170 40" fill="none" xmlns="http://www.w3.org/2000/svg">
<g clip-path="url(#clip0_436_82)">
<path d="M14.1089 0.126953H0.248047V20.9677H14.1089C14.802 20.9677 15.495 20.8913 16.1138 20.7639C16.8069 20.611 17.4752 20.4072 18.1187 20.127C21.8314 18.4709 24.2323 14.7002 24.2323 10.5473C24.2323 4.81485 19.7028 0.126953 14.1089 0.126953ZM14.1089 13.0187H8.02005V8.10148H14.1089C15.4208 8.10148 16.4851 9.19702 16.4851 10.5473C16.4851 11.8977 15.4208 13.0187 14.1089 13.0187Z" fill="white"/>
<path d="M117.669 12.9678H113.461V20.9678H122.074L117.669 12.9678Z" fill="white"/>
<path d="M126.728 12.9678H122.074V20.9678H126.728V12.9678Z" fill="white"/>
<path d="M122.545 31.1585H126.728V24.2031H118.114L122.545 31.1585Z" fill="white"/>
<path d="M118.114 24.2031H113.461V31.1585H118.114V24.2031Z" fill="white"/>
<path d="M76.7551 20.3563C75.7898 19.7703 74.6017 19.2098 73.1661 18.7003C71.7553 18.1652 70.7652 17.7321 70.1464 17.3499C69.5276 16.9678 69.2059 16.5092 69.2059 15.9232C69.2059 15.3882 69.3791 14.9805 69.7257 14.6493C70.0722 14.3436 70.5425 14.1652 71.1365 14.1652C71.8048 14.1652 72.5473 14.3436 73.3394 14.6748C74.1315 15.006 74.8988 15.6175 75.6166 16.5092L80.0966 11.8468C79.057 10.42 77.8194 9.40091 76.3343 8.76396C74.874 8.12702 73.0919 7.82129 71.0375 7.82129C69.7504 7.82129 68.5623 8.02511 67.4733 8.45823C66.4089 8.89135 65.4684 9.47734 64.7011 10.2162C63.9338 10.9805 63.315 11.8722 62.8695 12.9168C62.4239 13.9614 62.2012 15.0824 62.2012 16.3054C62.2012 17.3754 62.3497 18.3436 62.6715 19.1334C62.9437 19.8213 63.315 20.4582 63.81 21.0187H77.6709C77.3987 20.764 77.1016 20.5601 76.7551 20.3563Z" fill="white"/>
<path d="M69.3549 24.3304C70.0727 24.5597 70.6915 24.789 71.2113 24.9928C71.7063 25.1967 72.1271 25.4005 72.4488 25.6298C72.7706 25.8591 73.0181 26.0884 73.1419 26.3686C73.2904 26.6489 73.3647 26.9546 73.3647 27.3368C73.3647 27.8718 73.1666 28.3049 72.7706 28.6871C72.3746 29.0438 71.731 29.2221 70.7905 29.2221C69.9489 29.2221 69.1569 28.9928 68.3648 28.5597C67.5728 28.1266 66.8055 27.4387 66.0629 26.496L61.1621 30.2922C62.2512 31.7699 63.563 32.8909 65.0976 33.7062C66.6322 34.496 68.5628 34.9037 70.8647 34.9037C73.8844 34.9037 76.2606 34.2158 77.9932 32.84C79.7258 31.4642 80.6169 29.5279 80.6169 27.0565C80.6169 26.1139 80.4931 25.2731 80.2704 24.5342C80.2456 24.4323 80.1961 24.3559 80.1466 24.2285H68.9341C69.0826 24.254 69.2064 24.2795 69.3549 24.3304Z" fill="white"/>
<path d="M149.475 14.9805H145.069L143.237 20.9677L141.431 14.9805H137L139.698 20.9677H146.777L149.475 14.9805Z" fill="white"/>
<path d="M145.219 24.2031H141.283V29.6554H145.219V24.2031Z" fill="white"/>
<path d="M166.505 28.4834H169.451L167.52 24.2031H164.55L166.505 28.4834Z" fill="white"/>
<path d="M162.619 28.4834H159.674L161.58 24.2031H164.55L162.619 28.4834Z" fill="white"/>
<path d="M162.619 16.6875H159.674L161.58 20.9678H164.55L162.619 16.6875Z" fill="white"/>
<path d="M166.505 16.6875H169.451L167.52 20.9678H164.55L166.505 16.6875Z" fill="white"/>
<path d="M93.9322 18.2921C93.9322 16.9673 94.9718 15.8972 96.2589 15.8972C97.5459 15.8972 98.5855 16.9673 98.5855 18.2921V20.9673H103.783V18.2921C103.783 14.0373 100.417 10.5469 96.2589 10.5469C92.1006 10.5469 88.7344 14.0118 88.7344 18.2921V20.9673H93.9075V18.2921H93.9322Z" fill="white"/>
<path d="M98.6106 25.0948C98.6106 26.4196 97.571 27.4897 96.2839 27.4897C94.9968 27.4897 93.9573 26.4196 93.9573 25.0948V24.2285H88.7842V25.0948C88.7842 29.3495 92.1504 32.84 96.3087 32.84C100.442 32.84 103.833 29.375 103.833 25.0948V24.2285H98.6353V25.0948H98.6106Z" fill="white"/>
<path d="M46.0136 25.477C46.0136 27.235 44.6275 28.6872 42.8949 28.6872C41.187 28.6872 39.7762 27.2604 39.7762 25.477V24.2031H31.4844V25.4515C31.4844 31.9229 36.608 37.1968 42.8949 37.1968C49.1818 37.1968 54.3053 31.9229 54.3053 25.4515V24.2031H46.0136V25.477Z" fill="white"/>
<path d="M54.3055 4.58594H46.0137V20.9681H54.3055V4.58594Z" fill="white"/>
<path d="M39.7762 4.58594H31.4844V20.9681H39.7762V4.58594Z" fill="white"/>
<path d="M19.1583 24.2031H0.248047V39.8719H9.50515V24.2031L17.7227 39.8719H28.0193L19.1583 24.2031Z" fill="white"/>
</g>
<defs>
<clipPath id="clip0_436_82">
<rect width="169.697" height="40" fill="white"/>
</clipPath>
</defs>
</svg>
