<svg width="617" height="601" viewBox="0 0 617 601" fill="none" xmlns="http://www.w3.org/2000/svg">
<path d="M600.07 366.826C599.143 366.826 598.215 366.826 598.215 365.899C598.215 364.972 596.361 364.972 594.507 364.972C590.798 364.045 587.09 364.045 583.381 364.045C581.527 364.045 579.673 364.045 577.819 363.118H576.891C566.693 362.192 555.567 360.338 545.369 357.557C542.588 356.631 539.806 353.85 538.879 351.069C539.806 351.069 538.879 351.069 538.879 351.069L531.462 349.216C535.171 322.337 533.316 294.532 527.754 267.654C521.264 240.776 510.138 214.824 495.304 191.653L500.867 186.092V185.165C500.867 182.385 501.794 178.677 503.648 176.824C511.992 169.409 520.336 163.848 529.608 158.287C531.462 157.36 533.316 156.433 535.171 155.507C538.879 153.653 541.66 151.799 545.369 149.945C546.296 149.019 547.223 149.019 548.15 148.092C549.078 147.165 548.15 147.165 548.15 146.238C556.495 139.75 558.349 128.628 551.859 120.287C549.078 116.579 543.515 113.799 538.879 113.799C534.243 113.799 529.608 115.652 525.899 118.433L524.972 119.36C524.045 120.287 523.118 121.214 522.191 121.214C519.409 123.994 516.628 126.775 514.774 129.555C513.847 131.409 511.992 132.336 511.065 133.262C504.575 140.677 496.231 148.092 487.887 153.653C486.033 154.58 484.178 155.507 482.324 155.507C481.397 155.507 479.543 155.507 478.616 154.58H477.689L470.271 159.214C462.854 151.799 454.51 144.384 447.093 136.97C412.789 110.091 370.141 93.4083 326.566 88.7741L325.639 81.3594V82.2863C322.858 80.4326 321.931 77.6521 321.004 74.8716C321.004 64.6763 321.004 54.4811 322.858 43.359V42.4322C322.858 40.5785 323.785 38.7248 323.785 36.8712C324.712 33.1638 324.712 29.4565 325.639 25.7491V20.1881C326.566 10.9197 319.149 1.6513 309.878 0.724459C304.315 -0.20238 298.752 2.57813 294.117 7.21233C290.408 10.9197 288.554 15.5539 288.554 20.1881V24.8223C288.554 28.5296 289.481 32.237 290.408 35.9443C291.335 37.798 291.335 39.6517 291.335 41.5054V42.4322C293.19 52.6274 293.19 62.8227 293.19 73.9447C292.263 76.7252 291.335 79.5057 288.554 81.3594V83.2131L287.627 90.6278C277.428 91.5546 267.23 93.4083 256.105 95.262C212.529 104.53 172.663 127.701 142.068 160.141L136.505 156.433H135.578C134.651 156.433 133.723 157.36 131.869 157.36C130.015 157.36 128.161 156.433 126.306 155.507C117.962 149.019 109.618 141.604 103.128 134.189C102.201 132.336 100.347 131.409 99.4196 130.482C96.6382 127.701 94.7839 124.921 92.0026 122.14C91.0754 121.213 90.1483 121.213 89.2212 120.287C88.294 119.36 88.294 119.36 88.294 119.36C84.5855 116.579 79.9499 114.726 75.3142 114.726C69.7514 114.726 65.1158 116.579 62.3344 121.214C56.7716 129.555 58.6259 140.677 66.0429 147.165C66.9701 147.165 66.9701 148.092 66.9701 148.092C66.9701 148.092 68.8243 149.945 69.7514 149.945C72.5328 151.799 76.2414 153.653 79.9499 155.507C81.8041 156.433 83.6584 157.36 85.5127 158.287C94.784 163.848 104.055 169.409 111.472 176.824C113.327 178.677 115.181 182.385 114.254 185.165V184.239L119.816 189.8C118.889 191.653 117.962 192.58 117.035 194.434C88.294 239.849 76.2414 293.605 84.5855 346.435L77.1685 348.289C77.1685 349.216 76.2414 349.216 76.2414 349.216C75.3142 351.996 72.5328 353.85 69.7514 355.704C59.553 358.484 49.3546 360.338 38.229 361.265C36.3748 361.265 34.5205 361.265 32.6663 362.192C28.9577 362.192 25.2492 363.118 21.5407 363.118C20.6136 363.118 19.6864 364.045 17.8322 364.045C16.905 364.045 16.9051 364.045 15.9779 364.972C5.77949 366.826 -0.710418 376.094 1.14384 386.289C2.9981 394.631 11.3423 400.192 19.6864 399.265C21.5407 399.265 22.4678 399.265 24.3221 398.338C25.2492 398.338 25.2492 398.338 25.2492 397.411C25.2492 396.485 28.0306 397.411 28.9577 397.411C32.6663 396.485 36.3748 394.631 39.1562 393.704C41.0104 392.777 42.8647 391.85 44.7189 391.85H45.6461C55.8445 388.143 65.1158 385.363 76.2414 383.509H77.1685C79.9499 383.509 82.7313 384.436 84.5855 386.289C85.5127 386.289 85.5127 387.216 85.5127 387.216L93.8568 386.289C107.764 428.924 133.723 466.924 169.881 494.729C178.226 501.217 185.643 506.778 194.914 511.413L190.278 517.9C190.278 518.827 191.205 518.827 191.205 518.827C193.06 521.608 193.06 525.315 192.133 528.096C188.424 537.364 182.861 546.632 177.298 554.974V555.901C176.371 557.755 175.444 558.681 173.59 560.535C171.736 562.389 169.881 566.096 167.1 569.803C166.173 570.73 166.173 571.657 165.246 572.584C165.246 572.584 165.246 573.511 164.319 573.511C159.683 582.779 163.392 593.901 171.736 598.535C173.59 599.462 176.371 600.389 178.226 600.389C185.643 600.389 192.133 595.755 195.841 589.267C195.841 589.267 195.841 588.34 196.768 588.34C196.768 587.413 197.695 586.487 198.622 585.56C199.55 581.852 201.404 579.072 202.331 575.364L204.185 569.803C206.967 559.608 211.602 550.34 216.238 541.071C218.092 538.291 220.874 536.437 223.655 535.51C224.582 535.51 224.582 535.51 224.582 534.584L228.291 527.169C254.25 537.364 281.137 541.998 308.951 541.998C325.639 541.998 342.328 540.145 359.016 535.51C369.214 533.657 379.413 529.949 388.684 527.169L392.393 533.657C393.32 533.657 393.32 533.657 393.32 534.584C396.101 535.51 398.883 537.364 400.737 540.145C405.372 549.413 410.008 558.681 412.789 568.877V569.803L414.644 575.364C415.571 579.072 416.498 582.779 418.352 585.56C419.279 586.487 419.279 587.413 420.207 588.34C420.207 588.34 420.206 589.267 421.134 589.267C424.842 595.755 431.332 600.389 438.749 600.389C441.53 600.389 443.385 599.462 446.166 598.535C449.875 596.682 453.583 592.974 454.51 588.34C455.437 583.706 455.437 579.072 453.583 574.438C453.583 573.511 452.656 573.511 452.656 573.511C452.656 572.584 451.729 571.657 450.802 570.73C448.948 567.023 447.093 564.242 444.312 561.462C443.385 559.608 442.458 558.681 440.603 556.828V554.974C434.113 546.632 429.478 537.364 425.769 528.096C424.842 525.315 424.842 521.608 426.696 518.827C426.696 517.9 427.624 517.9 427.624 517.9L424.842 510.486C472.126 481.754 508.284 437.265 524.972 384.436L532.389 385.363C533.316 385.363 533.316 384.436 533.316 384.436C535.171 382.582 537.952 381.655 540.733 381.655H541.661C551.859 383.509 562.057 386.289 571.329 389.997H572.256C574.11 390.924 575.964 391.85 577.819 391.85C581.527 393.704 584.308 395.558 588.017 396.485C588.944 396.485 589.871 397.411 591.725 397.411C592.653 397.411 592.653 397.411 593.58 398.338C595.434 399.265 596.361 399.265 598.215 399.265C606.56 399.265 613.977 393.704 616.758 386.289C615.831 376.094 608.414 368.679 600.07 366.826ZM332.129 338.094L307.097 350.143L282.064 338.094L275.574 311.215L293.19 288.971H321.004L338.619 311.215L332.129 338.094ZM483.251 277.849C487.887 297.313 488.814 316.776 486.96 336.24L398.882 311.215C390.538 309.362 385.903 301.02 387.757 292.679C388.684 289.898 389.611 288.044 391.465 286.191L461 223.166C471.199 239.849 478.616 258.386 483.251 277.849ZM433.186 188.873L357.162 242.629C350.672 246.337 341.4 245.41 336.765 238.922C334.911 237.068 333.983 235.215 333.983 232.434L328.421 138.823C369.214 143.458 405.372 161.068 433.186 188.873ZM265.376 141.604L283.918 137.897L279.283 230.58C279.283 238.922 271.866 245.41 263.522 245.41C260.74 245.41 258.886 244.483 256.105 243.556L179.153 188.873C203.258 165.702 232.926 149.019 265.376 141.604ZM152.266 223.166L220.874 284.337C227.364 289.898 228.291 299.167 222.728 305.654C220.874 308.435 219.019 309.362 215.311 310.289L125.379 336.24C122.598 297.313 131.869 257.459 152.266 223.166ZM136.505 379.801L228.291 364.045C235.708 364.045 243.125 368.679 244.052 376.094C244.979 378.875 244.979 382.582 243.125 385.363L207.894 470.632C175.444 449.314 149.485 416.875 136.505 379.801ZM346.963 494.729C333.983 497.51 321.004 499.364 307.097 499.364C287.627 499.364 267.23 495.656 248.688 490.095L294.117 407.607C298.752 402.046 306.17 400.192 312.659 403.899C315.441 405.753 317.295 407.607 320.076 410.387L364.579 491.022C359.016 491.949 353.453 492.876 346.963 494.729ZM460.073 414.095C446.166 436.339 426.696 455.802 404.445 469.705L368.287 382.582C366.433 375.167 370.141 367.753 376.631 364.972C379.413 364.045 382.194 363.118 384.976 363.118L477.689 378.875C473.053 391.85 467.49 403.899 460.073 414.095Z" fill="url(#paint0_linear_437_1316)"/>
<defs>
<linearGradient id="paint0_linear_437_1316" x1="0.82813" y1="300.468" x2="616.747" y2="303.087" gradientUnits="userSpaceOnUse">
<stop stop-color="#003C40"/>
<stop offset="1" stop-color="#21B6A7"/>
</linearGradient>
</defs>
</svg>
