<svg width="570" height="570" viewBox="0 0 570 570" fill="none" xmlns="http://www.w3.org/2000/svg">
<path opacity="0.05" d="M419.469 473.989L257.779 567.317C250.896 571.284 238.88 570.817 230.947 566.151L73.1061 475.039C65.1733 470.49 64.24 463.49 71.1229 459.524L232.814 366.196C239.696 362.229 251.712 362.696 259.645 367.362L417.603 458.474C425.536 463.023 426.469 470.023 419.469 473.989Z" fill="#1A1A1A"/>
<path d="M419.469 365.961L257.779 459.289C250.896 463.255 238.88 462.789 230.947 458.122L73.1061 367.011C65.1733 362.461 64.24 355.462 71.1229 351.495L232.814 258.167C239.696 254.201 251.712 254.668 259.645 259.334L417.486 350.445C425.536 354.995 426.469 361.995 419.469 365.961Z" fill="#AFD3CF"/>
<path d="M424.135 359.662V395.36C423.902 397.693 422.385 399.909 419.469 401.659L257.778 494.987C250.895 498.954 238.879 498.487 230.947 493.821L73.1056 402.709C68.7892 400.143 66.4561 396.993 66.4561 393.96V358.729C66.6894 361.645 68.9059 364.678 72.989 367.011L159.667 417.058L230.83 458.123C238.763 462.672 250.779 463.256 257.662 459.289L330.807 417.058L419.469 365.961C422.502 364.212 424.019 361.995 424.135 359.662Z" fill="#BDE3DF"/>
<path d="M123.271 414.142C123.271 417.875 125.837 422.425 129.104 424.291C132.37 426.158 134.936 424.641 134.936 420.908C134.936 417.175 132.37 412.625 129.104 410.759C125.837 408.892 123.271 410.409 123.271 414.142Z" fill="#BD0800"/>
<path d="M125.37 415.309C125.37 417.759 127.12 420.792 129.22 421.958C131.32 423.242 133.07 422.192 133.07 419.742C133.07 417.292 131.32 414.259 129.22 413.092C127.003 411.926 125.37 412.859 125.37 415.309Z" fill="#E6352E"/>
<path d="M100.405 401.192C100.405 404.925 102.972 409.475 106.238 411.342C109.505 413.208 112.071 411.692 112.071 407.958C112.071 404.225 109.505 399.676 106.238 397.809C102.972 395.942 100.405 397.459 100.405 401.192Z" fill="#BD0800"/>
<path d="M102.389 402.359C102.389 404.809 104.139 407.842 106.238 409.009C108.338 410.292 110.088 409.242 110.088 406.792C110.088 404.342 108.338 401.309 106.238 400.142C104.139 398.976 102.389 399.909 102.389 402.359Z" fill="#E6352E"/>
<path d="M364.406 416.008C364.406 419.742 361.84 424.291 358.573 426.158C355.307 428.024 352.74 426.508 352.74 422.775C352.74 419.042 355.307 414.492 358.573 412.625C361.723 410.759 364.406 412.275 364.406 416.008Z" fill="#BD0800"/>
<path d="M362.423 417.175C362.423 419.625 360.673 422.658 358.573 423.825C356.474 425.108 354.724 424.058 354.724 421.608C354.724 419.158 356.474 416.125 358.573 414.959C360.673 413.675 362.423 414.725 362.423 417.175Z" fill="#E6352E"/>
<path d="M384.472 404.342C384.472 408.076 381.905 412.625 378.639 414.492C375.372 416.358 372.806 414.842 372.806 411.109C372.806 407.376 375.372 402.826 378.639 400.959C381.788 399.093 384.472 400.609 384.472 404.342Z" fill="#BD0800"/>
<path d="M382.489 405.509C382.489 407.959 380.739 410.992 378.639 412.159C376.539 413.442 374.789 412.392 374.789 409.942C374.789 407.492 376.539 404.459 378.639 403.293C380.739 402.126 382.489 403.059 382.489 405.509Z" fill="#E6352E"/>
<path d="M193.849 454.973C193.849 458.706 196.415 463.256 199.682 465.122C202.948 466.989 205.515 465.472 205.515 461.739C205.515 458.006 202.948 453.456 199.682 451.59C196.415 449.723 193.849 451.24 193.849 454.973Z" fill="#BD0800"/>
<path d="M195.832 456.14C195.832 458.59 197.582 461.623 199.682 462.789C201.782 464.073 203.532 463.023 203.532 460.573C203.532 458.123 201.782 455.09 199.682 453.923C197.582 452.757 195.832 453.69 195.832 456.14Z" fill="#E6352E"/>
<path d="M173.667 443.424C173.667 447.157 176.234 451.706 179.5 453.573C182.766 455.44 185.333 453.923 185.333 450.19C185.333 446.457 182.766 441.907 179.5 440.04C176.35 438.174 173.667 439.691 173.667 443.424Z" fill="#BD0800"/>
<path d="M175.767 444.59C175.767 447.04 177.517 450.073 179.616 451.24C181.716 452.523 183.466 451.473 183.466 449.023C183.466 446.574 181.716 443.54 179.616 442.374C177.4 441.091 175.767 442.14 175.767 444.59Z" fill="#E6352E"/>
<path d="M94.8053 428.259C94.3387 428.259 93.872 428.142 93.5221 427.909C92.8221 427.442 92.3555 426.742 92.3555 425.809V415.31C92.3555 412.743 93.7554 410.293 95.9719 409.127L105.771 403.644L107.055 404.344L96.5552 410.177C94.6887 411.226 93.5221 413.21 93.5221 415.31V425.809C93.5221 426.276 93.7554 426.626 94.1054 426.859C94.4553 427.092 94.922 427.092 95.272 426.859L105.888 421.609L107.171 422.309L95.9719 427.909C95.5053 428.142 95.1553 428.259 94.8053 428.259Z" fill="#E6352E"/>
<path d="M117.788 441.558C117.321 441.558 116.854 441.441 116.504 441.208C115.805 440.741 115.338 440.041 115.338 439.108V428.608C115.338 426.042 116.738 423.592 118.954 422.425L128.754 416.942L130.037 417.642L119.538 423.475C117.671 424.525 116.504 426.508 116.504 428.608V439.108C116.504 439.574 116.738 439.924 117.088 440.158C117.438 440.391 117.904 440.391 118.254 440.158L128.87 434.908L130.154 435.608L118.954 441.208C118.488 441.441 118.138 441.558 117.788 441.558Z" fill="#E6352E"/>
<path d="M319.958 512.953H318.791V459.756L319.958 459.056V512.953Z" fill="#E6352E"/>
<path d="M302.342 523.102H301.059V470.022L302.342 469.322V523.102Z" fill="#E6352E"/>
<path d="M187.083 512.487H185.916V469.672C185.916 467.106 187.316 464.656 189.532 463.489L199.099 458.24L200.382 458.94L190.232 464.539C188.366 465.589 187.199 467.573 187.199 469.672V512.487H187.083Z" fill="#E6352E"/>
<path d="M165.383 501.637H164.217V458.823C164.217 456.256 165.617 453.807 167.833 452.64L178.916 446.457L180.199 447.157L168.533 453.69C166.667 454.74 165.5 456.723 165.5 458.823V501.637H165.383Z" fill="#E6352E"/>
<path d="M371.055 473.406H372.222V430.591C372.222 428.025 370.822 425.575 368.605 424.408L359.039 419.159L357.756 419.859L367.905 425.458C369.772 426.508 370.938 428.492 370.938 430.591V473.406H371.055Z" fill="#E6352E"/>
<path d="M392.753 462.556H393.92V419.742C393.92 417.175 392.52 414.726 390.303 413.559L379.221 407.376L377.938 408.076L389.603 414.609C391.47 415.659 392.637 417.642 392.637 419.742V462.556H392.753Z" fill="#E6352E"/>
<path d="M424.137 0V359.662C423.903 361.996 422.387 364.212 419.47 365.962L257.78 459.29C250.897 463.256 238.881 462.79 230.948 458.123L73.1072 367.012C68.7908 364.445 66.5742 361.296 66.5742 358.263V0H424.137Z" fill="url(#paint0_linear_436_810)"/>
<path d="M245.295 394.427L129.918 327.814L245.295 261.201L360.788 327.814L245.295 394.427Z" fill="#405251"/>
<path d="M245.295 427.908L129.918 361.179V327.814L245.295 394.427V427.908Z" fill="#97BBB7"/>
<path d="M360.788 361.179L245.295 427.908V394.427L360.788 327.814V361.179Z" fill="#BDE3DF"/>
<path d="M245.295 351.263L129.918 284.65L245.295 218.037L360.788 284.65L245.295 351.263Z" fill="#405251"/>
<path d="M245.295 384.745L129.918 318.132V284.65L245.295 351.263V384.745Z" fill="#97BBB7"/>
<path d="M360.788 318.132L245.295 384.745V351.263L360.788 284.65V318.132Z" fill="#BDE3DF"/>
<path d="M245.295 308.215L129.918 241.485L245.295 174.873L360.788 241.485L245.295 308.215Z" fill="#405251"/>
<path d="M245.295 341.58L129.918 274.967V241.486L245.295 308.215V341.58Z" fill="#97BBB7"/>
<path d="M360.788 274.967L245.295 341.58V308.215L360.788 241.486V274.967Z" fill="#BDE3DF"/>
<path d="M245.295 265.051L129.918 198.321L245.295 131.708L360.788 198.321L245.295 265.051Z" fill="#AFD3CF"/>
<path d="M245.295 298.415L129.918 231.803V198.321L245.295 265.051V298.415Z" fill="#97BBB7"/>
<path d="M360.788 231.803L245.295 298.415V265.051L360.788 198.321V231.803Z" fill="#BDE3DF"/>
<path d="M251.712 209.288C239.929 216.054 229.43 217.571 220.564 213.605C209.714 208.822 203.531 196.222 203.531 179.073V139.292L210.298 134.276C231.296 118.643 247.395 98.1113 247.629 97.9947L251.712 92.745L255.795 93.2116C255.912 93.2116 272.244 95.0782 293.126 86.4453L299.892 83.6455V123.427C299.892 140.576 293.709 160.408 282.86 177.673C273.877 191.906 263.494 202.522 251.712 209.288Z" fill="#17AA9B"/>
<path d="M291.96 96.0112V127.976C291.96 142.325 286.827 159.008 277.611 173.823C271.428 183.739 262.912 193.656 251.713 200.189C240.513 206.605 232.114 206.488 225.931 203.805C225.931 203.805 225.931 203.805 225.814 203.805C216.481 199.722 211.465 188.873 211.465 174.523V142.559C234.214 125.526 251.713 103.244 251.713 103.244C251.713 103.244 267.695 105.227 289.044 97.1778C289.977 96.8278 290.91 96.4779 291.96 96.0112Z" fill="#007468"/>
<path d="M288.926 97.1777V126.926C288.926 141.159 283.793 157.958 274.577 172.773C268.394 182.689 259.878 192.606 248.679 199.138C239.229 204.621 231.646 205.321 225.813 203.805C225.813 203.805 225.814 203.805 225.697 203.805C216.364 199.722 211.348 188.872 211.348 174.523V142.558C234.213 125.526 251.712 103.244 251.712 103.244C251.712 103.244 267.578 105.227 288.926 97.1777Z" fill="#84F9ED"/>
<path d="M299.893 83.5288L293.127 86.3287C291.143 87.1453 289.16 87.8453 287.294 88.5452C269.328 94.6115 256.029 93.095 255.912 93.095L251.829 92.6283L247.746 97.878C247.629 98.1113 231.414 118.527 210.415 134.159L203.649 139.176V178.957C203.649 196.106 209.832 208.705 220.681 213.488C222.314 214.188 223.947 214.771 225.697 215.121C206.682 211.505 192.683 195.172 191.166 175.923C191.049 173.59 190.933 171.257 190.933 168.924V129.143L197.699 124.126C218.698 108.494 234.797 87.9619 235.03 87.8453L239.113 82.5956L243.196 83.0622C243.313 83.0622 259.645 84.9288 280.527 76.2959L287.294 73.4961L299.893 83.5288Z" fill="#007468"/>
<path d="M251.712 92.628L247.629 97.8777C247.512 98.111 231.296 118.526 210.298 134.159L203.531 139.175V178.956C203.531 196.105 209.714 208.705 220.564 213.488C222.197 214.188 223.83 214.771 225.58 215.121C206.565 211.504 192.565 195.172 191.049 175.923C190.932 173.59 190.815 171.257 190.815 168.924V129.143L197.582 124.126C218.581 108.494 234.68 87.9616 234.913 87.8449L238.996 82.5952L251.712 92.628Z" fill="#007468"/>
<path d="M273.061 114.561L278.078 116.077L249.729 165.191L244.713 163.674L273.061 114.561Z" fill="#007468"/>
<path d="M285.31 120.276L278.077 116.077L249.729 165.19L231.763 154.924L226.63 163.907L251.712 178.49L256.961 169.39L285.31 120.276Z" fill="#17AA9B"/>
<path d="M231.763 154.925L226.747 153.408L221.497 162.391L226.63 163.908L231.763 154.925Z" fill="#007468"/>
<path d="M251.712 178.49L246.696 176.974L221.497 162.391L226.63 163.908L251.712 178.49Z" fill="#007468"/>
<defs>
<linearGradient id="paint0_linear_436_810" x1="245.353" y1="458.722" x2="245.353" y2="-2.25446" gradientUnits="userSpaceOnUse">
<stop stop-color="#0FC8B5" stop-opacity="0.4"/>
<stop offset="0.760417" stop-color="#0FC8B5" stop-opacity="0.05"/>
<stop offset="1" stop-color="#0FC8B5" stop-opacity="0"/>
</linearGradient>
</defs>
</svg>
