<svg width="570" height="570" viewBox="0 0 570 570" fill="none" xmlns="http://www.w3.org/2000/svg">
<path d="M381.721 160.244C385.639 162.354 385.037 166.423 388.804 167.93C391.668 168.985 398.299 165.218 400.258 163.56C402.368 161.752 403.724 159.34 404.025 158.436C405.382 154.216 404.327 147.435 401.765 143.667C399.806 140.653 392.27 132.214 384.886 135.529C385.187 134.776 390.311 121.212 379.461 105.238C376.748 101.169 372.076 97.2503 367.254 95.5926C364.24 94.5376 361.225 94.6883 358.814 95.4419C356.704 96.0447 353.69 97.2503 353.69 97.2503C352.485 92.8799 351.43 88.9616 348.868 84.7419C344.196 77.2067 333.647 66.9589 324.002 67.5617C322.042 67.7124 320.234 68.0138 318.576 68.7673C315.713 69.8222 308.931 71.7814 307.274 73.1377C303.355 76.0011 307.726 82.7828 309.233 88.0574C305.465 87.1532 301.999 87.1532 298.985 88.0574C296.574 88.8109 288.285 91.5236 287.531 92.2771C285.874 94.2362 290.998 97.0996 290.998 100.566C291.148 110.512 295.82 117.445 302.903 121.664L381.721 160.244Z" fill="#BFD9E0"/>
<path d="M394.983 161.601C394.38 163.259 389.859 170.643 383.982 168.232C380.214 166.725 376.597 165.369 372.679 163.259L331.989 143.366L324.906 139.9L294.163 124.83C287.079 120.61 282.408 113.677 282.257 103.731C282.106 93.031 290.244 88.6607 300.341 91.0719C297.177 80.8241 304.561 71.179 315.11 70.5762C324.605 69.9734 335.305 80.2212 339.976 87.7564C342.84 92.4282 343.744 96.648 345.251 101.772C347.512 98.4564 352.937 96.6479 358.513 98.4564C363.336 99.9634 367.857 104.032 370.569 108.101C381.42 124.076 376.145 137.639 375.995 138.393C383.379 135.077 390.914 143.517 392.873 146.531C395.285 150.6 396.34 157.532 394.983 161.601Z" fill="#DBEDF2"/>
<path d="M164.198 315.746L73.3721 278.424L156.431 239.807L247.472 277.776L164.198 315.746ZM78.9813 278.424L164.198 313.373L242.079 277.992L156.647 242.18L78.9813 278.424Z" fill="#E5352E"/>
<path opacity="0.2" d="M410.786 214.134L353.831 240.67L416.179 266.127L473.134 240.238L410.786 214.134Z" fill="#1A1A1A"/>
<path d="M414.667 275.187L324.057 237.864L407.116 199.247L498.157 237.217L414.667 275.187ZM329.45 237.648L414.667 272.598L492.548 237.217L407.331 201.62L329.45 237.648Z" fill="#E5352E"/>
<path d="M265.809 480.785L171.963 433.754L172.61 432.675L266.24 479.706L265.809 480.785Z" fill="#E5352E"/>
<path d="M454.797 442.169L353.4 401.826L354.048 400.747L455.444 440.874L454.797 442.169Z" fill="#E5352E"/>
<path d="M62.3686 381.546L4.55089 352.205C1.7463 351.127 0.236124 349.616 0.0203862 347.89C-0.195352 346.165 1.31482 344.223 3.90367 342.928L110.047 293.525L111.773 294.172L4.55089 344.007C2.39351 345.086 1.31483 346.38 1.31483 347.675C1.31483 348.969 2.82498 350.048 4.98236 350.911L62.5843 380.251L62.3686 381.546Z" fill="#E5352E"/>
<path opacity="0.2" d="M158.373 252.103L101.202 278.639L163.55 304.312L220.721 278.207L158.373 252.103Z" fill="#1A1A1A"/>
<path d="M367.422 89.6523V234.628L420.709 256.633L469.25 234.628V89.2208L367.422 89.6523Z" fill="#AFD3CF"/>
<path d="M420.709 111.442L367.422 89.437V234.629L420.709 256.634V111.442Z" fill="#97BBB7"/>
<path d="M416.179 116.405L371.953 98.2827V202.268L416.179 175.948V116.405Z" fill="url(#paint0_linear_436_913)"/>
<path d="M415.963 67L367.422 89.4367L420.709 111.442L469.25 89.221L415.963 67Z" fill="#BDE3DF"/>
<path d="M418.336 70.2357L375.404 90.2993L373.894 89.6521L416.825 69.8042L418.336 70.2357Z" fill="#17AA9B"/>
<path d="M421.788 71.7454L379.072 91.5933L377.562 91.1618L420.493 71.314L421.788 71.7454Z" fill="#17AA9B"/>
<path d="M425.239 73.2563L382.307 93.1042L381.013 92.6727L423.945 72.8248L425.239 73.2563Z" fill="#17AA9B"/>
<path d="M428.907 74.767L385.975 94.6148L384.681 93.9676L427.397 74.1198L428.907 74.767Z" fill="#17AA9B"/>
<path d="M412.511 116.836C413.158 116.836 413.805 117.699 413.805 119.425C413.805 121.367 413.158 122.014 412.511 122.014C411.864 122.014 411.217 121.367 411.217 119.425C411.001 117.483 411.648 116.836 412.511 116.836Z" fill="#EDEDED"/>
<path d="M375.188 101.95C375.835 101.95 376.482 102.813 376.482 104.539C376.482 106.48 375.835 107.128 375.188 107.128C374.541 107.128 373.894 106.48 373.894 104.539C373.894 102.597 374.541 101.95 375.188 101.95Z" fill="#EDEDED"/>
<path d="M412.511 241.101C413.158 241.101 413.805 241.964 413.805 243.69C413.805 245.631 413.158 246.279 412.511 246.279C411.864 246.279 411.217 245.631 411.217 243.69C411.001 241.748 411.648 241.101 412.511 241.101Z" fill="#EDEDED"/>
<path d="M375.188 226.215C375.835 226.215 376.482 227.078 376.482 228.803C376.482 230.745 375.835 231.392 375.188 231.392C374.541 231.392 373.894 230.745 373.894 228.803C373.894 226.862 374.541 226.215 375.188 226.215Z" fill="url(#paint1_linear_436_913)"/>
<path d="M374.757 227.293C374.972 227.293 375.404 227.941 375.404 228.803C375.404 229.666 375.188 230.314 374.757 230.314C374.541 230.314 374.109 229.666 374.109 228.803C374.109 227.941 374.325 227.293 374.757 227.293Z" fill="#83F9ED"/>
<path d="M465.799 177.458V180.478L424.377 199.247V197.953V196.227L465.151 177.889L465.799 177.458Z" fill="#83F9ED"/>
<path d="M465.799 177.458V180.478L424.377 199.247V197.953L465.151 179.4V177.889L465.799 177.458Z" fill="#17AA9B"/>
<path d="M465.799 183.93V186.735L424.377 205.719V204.425V202.699L465.151 184.361L465.799 183.93Z" fill="#83F9ED"/>
<path d="M465.799 183.93V186.735L424.377 205.719V204.425L465.151 185.872V184.361L465.799 183.93Z" fill="#17AA9B"/>
<path d="M465.799 190.402V193.207L424.377 212.191V210.897V208.955L465.151 190.833L465.799 190.402Z" fill="#83F9ED"/>
<path d="M465.799 190.402V193.207L424.377 212.191V210.897L465.151 192.344V190.833L465.799 190.402Z" fill="#17AA9B"/>
<path d="M465.799 196.659V199.679L424.377 218.449V217.154V215.428L465.151 197.091L465.799 196.659Z" fill="#83F9ED"/>
<path d="M465.799 196.659V199.679L424.377 218.449V217.154L465.151 198.601V197.091L465.799 196.659Z" fill="#17AA9B"/>
<path d="M465.799 203.131V205.935L424.377 224.92V223.626V221.9L465.151 203.562L465.799 203.131Z" fill="#83F9ED"/>
<path d="M465.799 203.131V205.935L424.377 224.92V223.626L465.151 205.072V203.562L465.799 203.131Z" fill="#17AA9B"/>
<path d="M465.799 209.603V212.408L424.377 231.393V230.098V228.157L465.151 210.035L465.799 209.603Z" fill="#83F9ED"/>
<path d="M465.799 209.603V212.408L424.377 231.393V230.098L465.151 211.545V210.035L465.799 209.603Z" fill="#17AA9B"/>
<path d="M465.799 215.859V218.879L424.377 237.649V236.354V234.628L465.151 216.291L465.799 215.859Z" fill="#83F9ED"/>
<path d="M465.799 215.859V218.879L424.377 237.649V236.354L465.151 217.801V216.291L465.799 215.859Z" fill="#17AA9B"/>
<path d="M465.799 222.331V225.135L424.377 244.12V242.826V241.1L465.151 222.762L465.799 222.331Z" fill="#83F9ED"/>
<path d="M465.799 222.331V225.135L424.377 244.12V242.826L465.151 224.272V222.762L465.799 222.331Z" fill="#17AA9B"/>
<path d="M466.23 95.2625L424.377 114.247V133.664L466.23 114.679V95.2625Z" fill="#17AA9B"/>
<mask id="mask0_436_913" style="mask-type:alpha" maskUnits="userSpaceOnUse" x="442" y="100" width="22" height="13">
<path d="M442.07 110.364V112.521L463.86 102.598V100.44L442.07 110.364Z" fill="url(#paint2_linear_436_913)"/>
</mask>
<g mask="url(#mask0_436_913)">
<path opacity="0.6" d="M442.067 110.364V112.521L463.857 102.598V100.44L442.067 110.364Z" fill="#83F9ED"/>
</g>
<mask id="mask1_436_913" style="mask-type:alpha" maskUnits="userSpaceOnUse" x="442" y="104" width="22" height="13">
<path d="M442.07 114.031V116.188L463.86 106.264V104.107L442.07 114.031Z" fill="url(#paint3_linear_436_913)"/>
</mask>
<g mask="url(#mask1_436_913)">
<path opacity="0.6" d="M442.067 114.031V116.189L463.857 106.265V104.108L442.067 114.031Z" fill="#83F9ED"/>
</g>
<path d="M466.23 120.935L424.377 139.919V159.336L466.23 140.351V120.935Z" fill="#17AA9B"/>
<mask id="mask2_436_913" style="mask-type:alpha" maskUnits="userSpaceOnUse" x="442" y="125" width="22" height="13">
<path d="M442.07 135.82V137.977L463.86 128.053V125.896L442.07 135.82Z" fill="url(#paint4_linear_436_913)"/>
</mask>
<g mask="url(#mask2_436_913)">
<path opacity="0.6" d="M442.067 135.82V137.978L463.857 128.054V125.896L442.067 135.82Z" fill="#83F9ED"/>
</g>
<mask id="mask3_436_913" style="mask-type:alpha" maskUnits="userSpaceOnUse" x="442" y="129" width="22" height="13">
<path d="M442.07 139.703V141.86L463.86 131.937V129.779L442.07 139.703Z" fill="url(#paint5_linear_436_913)"/>
</mask>
<g mask="url(#mask3_436_913)">
<path opacity="0.6" d="M442.067 139.704V141.861L463.857 131.937V129.78L442.067 139.704Z" fill="#83F9ED"/>
</g>
<path d="M466.23 146.607L424.377 165.592V185.009L466.23 166.024V146.607Z" fill="#17AA9B"/>
<mask id="mask4_436_913" style="mask-type:alpha" maskUnits="userSpaceOnUse" x="442" y="151" width="22" height="13">
<path d="M442.07 161.493V163.651L463.86 153.727V151.569L442.07 161.493Z" fill="url(#paint6_linear_436_913)"/>
</mask>
<g mask="url(#mask4_436_913)">
<path opacity="0.6" d="M442.067 161.493V163.65L463.857 153.726V151.569L442.067 161.493Z" fill="#83F9ED"/>
</g>
<mask id="mask5_436_913" style="mask-type:alpha" maskUnits="userSpaceOnUse" x="442" y="155" width="22" height="13">
<path d="M442.07 165.376V167.533L463.86 157.609V155.452L442.07 165.376Z" fill="url(#paint7_linear_436_913)"/>
</mask>
<g mask="url(#mask5_436_913)">
<path opacity="0.6" d="M442.067 165.376V167.534L463.857 157.61V155.453L442.067 165.376Z" fill="#83F9ED"/>
</g>
<path d="M109.185 127.19V272.382L162.256 294.387L211.013 272.382V126.975L109.185 127.19Z" fill="#AFD3CF"/>
<path d="M162.256 149.196L109.185 127.191V272.382L162.256 294.387V149.196Z" fill="#97BBB7"/>
<path d="M157.726 154.158L113.716 136.036V240.022L157.726 213.702V154.158Z" fill="url(#paint8_linear_436_913)"/>
<path d="M157.726 104.754L109.185 127.19L162.256 148.98L211.013 126.975L157.726 104.754Z" fill="#BDE3DF"/>
<path d="M159.883 107.989L116.952 127.837L115.657 127.405L158.589 107.557L159.883 107.989Z" fill="#17AA9B"/>
<path d="M163.551 109.5L120.62 129.348L119.325 128.701L162.041 108.853L163.551 109.5Z" fill="#17AA9B"/>
<path d="M167.003 111.01L124.072 130.858L122.562 130.211L165.493 110.363L167.003 111.01Z" fill="#17AA9B"/>
<path d="M170.453 112.52L127.737 132.368L126.227 131.721L169.158 111.873L170.453 112.52Z" fill="#17AA9B"/>
<path d="M154.058 154.59C154.705 154.59 155.353 155.453 155.353 157.179C155.353 159.12 154.705 159.768 154.058 159.768C153.411 159.768 152.764 159.12 152.764 157.179C152.764 155.237 153.411 154.59 154.058 154.59Z" fill="#EDEDED"/>
<path d="M116.952 139.703C117.599 139.703 118.246 140.566 118.246 142.292C118.246 144.234 117.599 144.881 116.952 144.881C116.304 144.881 115.657 144.234 115.657 142.292C115.657 140.35 116.304 139.703 116.952 139.703Z" fill="#EDEDED"/>
<path d="M154.058 278.855C154.705 278.855 155.353 279.718 155.353 281.443C155.353 283.385 154.705 284.032 154.058 284.032C153.411 284.032 152.764 283.385 152.764 281.443C152.764 279.502 153.411 278.855 154.058 278.855Z" fill="#EDEDED"/>
<path d="M116.952 263.968C117.599 263.968 118.246 264.831 118.246 266.557C118.246 268.498 117.599 269.145 116.952 269.145C116.304 269.145 115.657 268.498 115.657 266.557C115.657 264.615 116.304 263.968 116.952 263.968Z" fill="#EDEDED"/>
<path d="M207.345 215.213V218.017L166.139 237.002V235.708V233.982L206.697 215.644L207.345 215.213Z" fill="#83F9ED"/>
<path d="M207.345 215.213V218.017L166.139 237.002V235.708L206.697 217.154V215.644L207.345 215.213Z" fill="#17AA9B"/>
<path d="M207.345 221.684V224.488L166.139 243.473V242.179V240.237L206.697 222.115L207.345 221.684Z" fill="#83F9ED"/>
<path d="M207.345 221.684V224.488L166.139 243.473V242.179L206.697 223.625V222.115L207.345 221.684Z" fill="#17AA9B"/>
<path d="M207.345 228.156V230.96L166.139 249.73V248.435V246.709L206.697 228.372L207.345 228.156Z" fill="#83F9ED"/>
<path d="M207.345 228.156V230.96L166.139 249.73V248.435L206.697 229.882V228.372L207.345 228.156Z" fill="#17AA9B"/>
<path d="M207.345 234.412V237.217L166.139 256.202V254.907V253.181L206.697 234.844L207.345 234.412Z" fill="#83F9ED"/>
<path d="M207.345 234.412V237.217L166.139 256.202V254.907L206.697 236.354V234.844L207.345 234.412Z" fill="#17AA9B"/>
<path d="M207.345 240.884V243.688L166.139 262.673V261.379V259.437L206.697 241.315L207.345 240.884Z" fill="#83F9ED"/>
<path d="M207.345 240.884V243.688L166.139 262.673V261.379L206.697 242.825V241.315L207.345 240.884Z" fill="#17AA9B"/>
<path d="M207.345 247.356V250.161L166.139 269.146V267.636V265.91L206.697 247.572L207.345 247.356Z" fill="#83F9ED"/>
<path d="M207.345 247.356V250.161L166.139 269.146V267.636L206.697 249.082V247.572L207.345 247.356Z" fill="#17AA9B"/>
<path d="M207.345 253.613V256.633L166.139 275.402V274.108V272.382L206.697 254.044L207.345 253.613Z" fill="#83F9ED"/>
<path d="M207.345 253.613V256.633L166.139 275.402V274.108L206.697 255.554V254.044L207.345 253.613Z" fill="#17AA9B"/>
<path d="M207.345 260.086V262.89L166.139 281.875V280.581V278.855L206.697 260.517L207.345 260.086Z" fill="#83F9ED"/>
<path d="M207.345 260.086V262.89L166.139 281.875V280.581L206.697 262.027V260.517L207.345 260.086Z" fill="#17AA9B"/>
<path d="M207.992 133.016L166.139 152.001V171.418L207.992 152.433V133.016Z" fill="#17AA9B"/>
<mask id="mask6_436_913" style="mask-type:alpha" maskUnits="userSpaceOnUse" x="183" y="137" width="23" height="14">
<path d="M183.615 147.902V150.06L205.62 140.136V137.979L183.615 147.902Z" fill="url(#paint9_linear_436_913)"/>
</mask>
<g mask="url(#mask6_436_913)">
<path opacity="0.6" d="M183.614 147.902V150.059L205.62 140.135V137.978L183.614 147.902Z" fill="#83F9ED"/>
</g>
<mask id="mask7_436_913" style="mask-type:alpha" maskUnits="userSpaceOnUse" x="183" y="141" width="23" height="13">
<path d="M183.615 151.786V153.944L205.62 144.02V141.863L183.615 151.786Z" fill="url(#paint10_linear_436_913)"/>
</mask>
<g mask="url(#mask7_436_913)">
<path opacity="0.6" d="M183.614 151.785V153.943L205.62 144.019V141.861L183.614 151.785Z" fill="#83F9ED"/>
</g>
<path d="M207.992 158.689L166.139 177.674V197.09L207.992 178.105V158.689Z" fill="#17AA9B"/>
<mask id="mask8_436_913" style="mask-type:alpha" maskUnits="userSpaceOnUse" x="183" y="163" width="23" height="13">
<path d="M183.615 173.575V175.732L205.62 165.808V163.651L183.615 173.575Z" fill="url(#paint11_linear_436_913)"/>
</mask>
<g mask="url(#mask8_436_913)">
<path opacity="0.6" d="M183.614 173.575V175.732L205.62 165.808V163.651L183.614 173.575Z" fill="#83F9ED"/>
</g>
<mask id="mask9_436_913" style="mask-type:alpha" maskUnits="userSpaceOnUse" x="183" y="167" width="23" height="13">
<path d="M183.615 177.459V179.616L205.62 169.692V167.535L183.615 177.459Z" fill="url(#paint12_linear_436_913)"/>
</mask>
<g mask="url(#mask9_436_913)">
<path opacity="0.6" d="M183.614 177.458V179.615L205.62 169.691V167.534L183.614 177.458Z" fill="#83F9ED"/>
</g>
<path d="M207.992 184.145L166.139 203.346V222.546L207.992 203.561V184.145Z" fill="#17AA9B"/>
<mask id="mask10_436_913" style="mask-type:alpha" maskUnits="userSpaceOnUse" x="183" y="189" width="23" height="13">
<path d="M183.615 199.247V201.404L205.62 191.48V189.323L183.615 199.247Z" fill="url(#paint13_linear_436_913)"/>
</mask>
<g mask="url(#mask10_436_913)">
<path opacity="0.6" d="M183.614 199.246V201.403L205.62 191.48V189.322L183.614 199.246Z" fill="#83F9ED"/>
</g>
<mask id="mask11_436_913" style="mask-type:alpha" maskUnits="userSpaceOnUse" x="183" y="192" width="23" height="14">
<path d="M183.615 203.129V205.071L205.62 195.147V192.99L183.615 203.129Z" fill="url(#paint14_linear_436_913)"/>
</mask>
<g mask="url(#mask11_436_913)">
<path opacity="0.6" d="M183.614 203.13V205.071L205.62 195.147V192.99L183.614 203.13Z" fill="#83F9ED"/>
</g>
<path opacity="0.2" d="M275.518 315.314L190.733 360.188L325.785 429.655L426.966 378.526L275.518 315.314Z" fill="#1A1A1A"/>
<path d="M429.338 254.476C429.554 252.319 427.828 249.946 425.671 249.299L294.934 184.362C292.776 183.714 287.167 186.735 287.167 189.108L285.873 286.837C285.657 288.994 287.383 291.368 289.54 292.015L417.041 359.325C419.199 359.972 424.161 356.305 424.376 353.932L429.338 254.476Z" fill="#405251"/>
<path d="M425.456 256.85C425.456 254.693 423.945 252.32 421.788 251.673L291.051 186.735C288.893 186.088 286.952 187.383 286.952 189.756L281.99 289.211C281.774 291.368 283.5 293.741 285.657 294.389L416.395 359.326C418.552 359.973 420.494 358.678 420.494 356.305L425.456 256.85Z" fill="#487774"/>
<path d="M420.494 255.771L415.532 352.637L286.521 288.779L291.483 192.128L420.494 255.771Z" fill="#405251"/>
<path d="M275.518 300.86C273.145 300.213 269.477 300.644 267.32 301.939L191.38 337.751C189.223 339.046 193.969 348.97 196.342 349.617L323.196 414.122C326.001 415.201 328.589 414.77 331.394 413.044L414.885 371.838C417.042 370.543 419.415 360.835 417.042 360.188L275.518 300.86Z" fill="#405251"/>
<path d="M277.028 295.25C280.264 293.74 285.442 293.74 288.678 295.25L415.747 359.108C418.983 360.618 418.983 363.423 415.747 364.933L332.041 405.923C328.158 407.865 324.274 408.081 320.391 405.923L193.322 342.065C190.086 340.555 190.086 337.75 193.322 336.24L277.028 295.25Z" fill="#487774"/>
<path d="M267.319 347.459C268.182 347.028 269.692 347.028 270.555 347.459L305.72 365.149C306.583 365.581 306.583 366.228 305.72 366.66L282.636 377.878C281.558 378.525 280.479 378.525 279.4 377.878L244.235 360.187C243.372 359.756 243.372 359.109 244.235 358.677L267.319 347.459Z" fill="#436462"/>
<path d="M305.721 366.876L270.772 349.401C269.909 348.97 268.399 348.97 267.536 349.401L244.452 360.619L244.02 360.404C243.157 359.972 243.157 359.325 244.02 358.894L267.104 347.675C267.967 347.244 269.477 347.244 270.34 347.675L305.506 365.366C306.584 365.581 306.584 366.444 305.721 366.876Z" fill="#405251"/>
<path d="M281.342 304.959C282.852 304.096 285.441 304.312 286.951 304.959L395.683 359.325C397.193 360.188 397.193 361.266 395.683 362.129L355.556 381.761C353.614 382.84 351.888 382.84 349.947 381.761L241.215 327.396C239.704 326.533 239.704 325.454 241.215 324.591L281.342 304.959Z" fill="#436462"/>
<path d="M395.683 362.129L287.167 307.979C285.657 307.116 283.068 307.116 281.558 307.979L241.646 327.611L241.215 327.396C239.704 326.533 239.704 325.454 241.215 324.591L281.342 304.959C282.852 304.096 285.441 304.312 286.951 304.959L395.683 359.325C397.193 360.188 397.193 361.482 395.683 362.129Z" fill="#405251"/>
<path d="M252.65 325.455L247.903 327.828L352.752 380.252L357.714 377.879L252.65 325.455Z" fill="#405251"/>
<path d="M259.986 321.786L255.239 324.16L360.088 376.584L365.05 374.211L259.986 321.786Z" fill="#405251"/>
<path d="M267.32 318.335L262.358 320.708L367.423 373.132L372.169 370.759L267.32 318.335Z" fill="#405251"/>
<path d="M292.777 314.667L287.815 317.04L278.97 312.51L283.716 310.137L292.777 314.667Z" fill="#405251"/>
<path d="M303.563 319.845L298.601 322.219L289.54 317.688L294.286 315.315L303.563 319.845Z" fill="#405251"/>
<path d="M314.134 325.239L309.172 327.612L300.111 323.081L305.073 320.708L314.134 325.239Z" fill="#405251"/>
<path d="M324.705 330.632L319.958 333.005L310.897 328.475L315.644 326.101L324.705 330.632Z" fill="#405251"/>
<path d="M335.494 336.025L330.532 338.398L321.471 333.868L326.433 331.495L335.494 336.025Z" fill="#405251"/>
<path d="M346.064 341.203L341.102 343.576L332.257 339.046L337.003 336.672L346.064 341.203Z" fill="#405251"/>
<path d="M356.851 346.597L351.889 348.97L342.828 344.44L347.79 342.066L356.851 346.597Z" fill="#405251"/>
<path d="M367.422 351.99L362.46 354.363L353.399 349.833L358.361 347.46L367.422 351.99Z" fill="#405251"/>
<path d="M377.994 357.168L373.248 359.541L364.187 355.227L369.149 352.854L377.994 357.168Z" fill="#405251"/>
<path d="M388.78 362.561L383.818 364.934L374.757 360.403L379.719 358.03L388.78 362.561Z" fill="#405251"/>
<path d="M285.226 320.061L280.264 322.434L269.478 317.041L274.44 314.668L285.226 320.061Z" fill="#405251"/>
<path d="M379.287 367.307L374.541 369.681L285.226 325.023L290.188 322.65L379.287 367.307Z" fill="#405251"/>
<path opacity="0.2" d="M481.117 438.715L424.162 465.035L486.51 490.708L543.681 464.819L481.117 438.715Z" fill="#1A1A1A"/>
<path d="M486.725 503.006L395.899 465.684L478.958 427.067L570 465.036L486.725 503.006ZM401.509 465.684L486.725 500.633L564.606 465.252L479.39 429.655L401.509 465.684Z" fill="#E5352E"/>
<path d="M193.536 442.599C199.146 445.62 198.283 451.445 203.676 453.602C207.775 455.112 217.267 449.719 220.072 447.346C223.092 444.757 225.034 441.305 225.466 440.011C227.407 433.97 225.897 424.262 222.229 418.868C219.425 414.553 208.638 402.472 198.067 407.218C198.498 406.14 205.833 386.723 190.3 363.855C186.417 358.03 179.729 352.421 172.826 350.048C168.511 348.538 164.196 348.753 160.744 349.832C157.724 350.695 153.409 352.421 153.409 352.421C151.683 346.165 150.173 340.555 146.505 334.515C139.818 323.728 124.716 309.058 110.909 309.921C108.104 310.136 105.515 310.568 103.142 311.647C99.0432 313.157 89.335 315.961 86.9619 317.903C81.3527 322.002 87.6091 331.71 89.7665 339.261C84.373 337.967 79.411 337.967 75.0963 339.261C71.6445 340.34 59.7789 344.223 58.7002 345.302C56.3271 348.106 63.6622 352.205 63.6622 357.167C63.8779 371.406 70.5658 381.33 80.7054 387.371L193.536 442.599Z" fill="#BFD9E0"/>
<path d="M212.522 444.541C211.659 446.914 205.187 457.486 196.773 454.034C191.38 451.876 186.202 449.935 180.593 446.914L122.344 418.437L112.204 413.475L68.1937 391.901C58.054 385.861 51.3661 375.937 51.1504 361.698C50.9347 346.381 62.5845 340.124 77.0389 343.576C72.5084 328.906 83.0796 315.099 98.1813 314.236C111.773 313.373 127.09 328.043 133.778 338.83C137.877 345.518 139.171 351.558 141.329 358.893C144.565 354.147 152.331 351.558 160.314 354.147C167.217 356.305 173.689 362.13 177.573 367.954C193.106 390.823 185.555 410.239 185.339 411.318C195.91 406.572 206.697 418.653 209.502 422.968C212.954 428.793 214.464 438.716 212.522 444.541Z" fill="#DBEDF2"/>
<path d="M432.574 312.941V458.132L485.861 480.137L534.402 457.916V312.509L432.574 312.941Z" fill="#AFD3CF"/>
<path d="M485.861 334.946L432.574 312.941V458.132L485.861 480.137V334.946Z" fill="#97BBB7"/>
<path d="M481.115 339.909L437.104 321.571V425.772L481.115 399.237V339.909Z" fill="url(#paint15_linear_436_913)"/>
<path d="M481.115 290.288L432.574 312.941L485.646 334.73L534.402 312.509L481.115 290.288Z" fill="#BDE3DF"/>
<path d="M477.448 340.34C478.095 340.34 478.742 341.203 478.742 342.929C478.742 344.87 478.095 345.518 477.448 345.518C476.8 345.518 476.153 344.87 476.153 342.929C476.153 340.987 476.8 340.34 477.448 340.34Z" fill="#EDEDED"/>
<path d="M440.339 325.238C440.987 325.238 441.634 326.101 441.634 327.827C441.634 329.768 440.987 330.415 440.339 330.415C439.692 330.415 439.045 329.768 439.045 327.827C439.045 325.885 439.692 325.238 440.339 325.238Z" fill="#EDEDED"/>
<path d="M477.448 464.603C478.095 464.603 478.742 465.466 478.742 467.192C478.742 469.134 478.095 469.781 477.448 469.781C476.8 469.781 476.153 469.134 476.153 467.192C476.153 465.251 476.8 464.603 477.448 464.603Z" fill="#EDEDED"/>
<path d="M440.339 449.717C440.987 449.717 441.634 450.58 441.634 452.306C441.634 454.248 440.987 454.895 440.339 454.895C439.692 454.895 439.045 454.248 439.045 452.306C439.045 450.364 439.692 449.717 440.339 449.717Z" fill="#EDEDED"/>
<path d="M531.381 318.766L489.528 337.751V357.167L531.381 338.182V318.766Z" fill="#17AA9B"/>
<path d="M510.886 341.85L495.568 348.753V351.989L510.886 345.086V341.85Z" fill="#83F9ED"/>
<path d="M531.381 343.144L489.528 362.128V381.545L531.381 362.56V343.144Z" fill="#17AA9B"/>
<path d="M510.886 366.227L495.568 373.13V376.366L510.886 369.463V366.227Z" fill="#83F9ED"/>
<path d="M531.381 367.522L489.528 386.507V405.923L531.381 386.938V367.522Z" fill="#17AA9B"/>
<path d="M510.886 390.605L495.568 397.509V400.745L510.886 393.841V390.605Z" fill="#83F9ED"/>
<path d="M531.381 391.901L489.528 410.886V430.303L531.381 411.318V391.901Z" fill="#17AA9B"/>
<path d="M510.886 414.984L495.568 421.887V425.124L510.886 418.22V414.984Z" fill="#83F9ED"/>
<path d="M531.381 416.279L489.528 435.264V454.68L531.381 435.695V416.279Z" fill="#17AA9B"/>
<path d="M510.886 439.362L495.568 446.482V449.502L510.886 442.598V439.362Z" fill="#83F9ED"/>
<path d="M280.05 497.828C274.44 497.828 269.263 496.749 265.379 494.807C261.28 492.866 259.123 490.061 259.123 487.257C259.123 484.452 261.28 481.647 265.379 479.706C269.263 477.764 274.656 476.685 280.05 476.685C285.443 476.685 290.837 477.764 294.72 479.706C298.819 481.647 300.976 484.452 300.976 487.257C300.976 490.061 298.819 492.866 294.72 494.807C290.837 496.749 285.443 497.828 280.05 497.828ZM280.05 477.98C269.263 477.98 260.417 482.079 260.417 487.257C260.417 492.434 269.263 496.533 280.05 496.533C290.836 496.533 299.682 492.434 299.682 487.257C299.466 482.079 290.836 477.98 280.05 477.98Z" fill="#E5352E"/>
<path d="M280.05 491.14C278.108 491.14 276.166 490.709 274.656 490.061C273.146 489.414 272.283 488.336 272.283 487.257C272.283 486.178 273.146 485.315 274.656 484.452C276.166 483.805 278.108 483.374 280.05 483.374C281.991 483.374 283.933 483.805 285.443 484.452C286.953 485.099 287.816 486.178 287.816 487.257C287.816 488.336 286.953 489.198 285.443 490.061C283.933 490.709 281.991 491.14 280.05 491.14Z" fill="#E5352E"/>
<defs>
<linearGradient id="paint0_linear_436_913" x1="394.066" y1="98.2827" x2="394.066" y2="202.268" gradientUnits="userSpaceOnUse">
<stop stop-color="white" stop-opacity="0.5"/>
<stop offset="1" stop-color="white" stop-opacity="0"/>
</linearGradient>
<linearGradient id="paint1_linear_436_913" x1="375.26" y1="220.99" x2="375.26" y2="236.179" gradientUnits="userSpaceOnUse">
<stop stop-color="#DFDFFB"/>
<stop offset="0.3401" stop-color="#D2D3FA"/>
<stop offset="0.9724" stop-color="#AFB4F6"/>
<stop offset="1" stop-color="#ADB2F6"/>
</linearGradient>
<linearGradient id="paint2_linear_436_913" x1="452.99" y1="54.7353" x2="452.99" y2="175.427" gradientUnits="userSpaceOnUse">
<stop stop-color="#666666"/>
<stop offset="0.4961" stop-color="white"/>
<stop offset="0.9961" stop-color="#666666"/>
</linearGradient>
<linearGradient id="paint3_linear_436_913" x1="452.99" y1="58.5364" x2="452.99" y2="179.249" gradientUnits="userSpaceOnUse">
<stop stop-color="#666666"/>
<stop offset="0.4961" stop-color="white"/>
<stop offset="0.9961" stop-color="#666666"/>
</linearGradient>
<linearGradient id="paint4_linear_436_913" x1="452.99" y1="80.3286" x2="452.99" y2="201.041" gradientUnits="userSpaceOnUse">
<stop stop-color="#666666"/>
<stop offset="0.4961" stop-color="white"/>
<stop offset="0.9961" stop-color="#666666"/>
</linearGradient>
<linearGradient id="paint5_linear_436_913" x1="452.99" y1="84.1494" x2="452.99" y2="204.841" gradientUnits="userSpaceOnUse">
<stop stop-color="#666666"/>
<stop offset="0.4961" stop-color="white"/>
<stop offset="0.9961" stop-color="#666666"/>
</linearGradient>
<linearGradient id="paint6_linear_436_913" x1="452.99" y1="105.936" x2="452.99" y2="226.649" gradientUnits="userSpaceOnUse">
<stop stop-color="#666666"/>
<stop offset="0.4961" stop-color="white"/>
<stop offset="0.9961" stop-color="#666666"/>
</linearGradient>
<linearGradient id="paint7_linear_436_913" x1="452.99" y1="109.748" x2="452.99" y2="230.453" gradientUnits="userSpaceOnUse">
<stop stop-color="#666666"/>
<stop offset="0.4961" stop-color="white"/>
<stop offset="0.9961" stop-color="#666666"/>
</linearGradient>
<linearGradient id="paint8_linear_436_913" x1="135.721" y1="136.036" x2="135.721" y2="240.022" gradientUnits="userSpaceOnUse">
<stop stop-color="white" stop-opacity="0.5"/>
<stop offset="1" stop-color="white" stop-opacity="0"/>
</linearGradient>
<linearGradient id="paint9_linear_436_913" x1="194.65" y1="92.4293" x2="194.65" y2="213.132" gradientUnits="userSpaceOnUse">
<stop stop-color="#666666"/>
<stop offset="0.4961" stop-color="white"/>
<stop offset="0.9961" stop-color="#666666"/>
</linearGradient>
<linearGradient id="paint10_linear_436_913" x1="194.65" y1="96.2498" x2="194.65" y2="216.932" gradientUnits="userSpaceOnUse">
<stop stop-color="#666666"/>
<stop offset="0.4961" stop-color="white"/>
<stop offset="0.9961" stop-color="#666666"/>
</linearGradient>
<linearGradient id="paint11_linear_436_913" x1="194.65" y1="118.03" x2="194.65" y2="238.743" gradientUnits="userSpaceOnUse">
<stop stop-color="#666666"/>
<stop offset="0.4961" stop-color="white"/>
<stop offset="0.9961" stop-color="#666666"/>
</linearGradient>
<linearGradient id="paint12_linear_436_913" x1="194.65" y1="121.851" x2="194.65" y2="242.542" gradientUnits="userSpaceOnUse">
<stop stop-color="#666666"/>
<stop offset="0.4961" stop-color="white"/>
<stop offset="0.9961" stop-color="#666666"/>
</linearGradient>
<linearGradient id="paint13_linear_436_913" x1="194.65" y1="143.639" x2="194.65" y2="264.341" gradientUnits="userSpaceOnUse">
<stop stop-color="#666666"/>
<stop offset="0.4961" stop-color="white"/>
<stop offset="0.9961" stop-color="#666666"/>
</linearGradient>
<linearGradient id="paint14_linear_436_913" x1="194.65" y1="147.458" x2="194.65" y2="268.141" gradientUnits="userSpaceOnUse">
<stop stop-color="#666666"/>
<stop offset="0.4961" stop-color="white"/>
<stop offset="0.9961" stop-color="#666666"/>
</linearGradient>
<linearGradient id="paint15_linear_436_913" x1="459.11" y1="321.571" x2="459.11" y2="425.772" gradientUnits="userSpaceOnUse">
<stop stop-color="white" stop-opacity="0.5"/>
<stop offset="1" stop-color="white" stop-opacity="0"/>
</linearGradient>
</defs>
</svg>
